<?xml version="1.0" encoding="us-ascii" standalone="no"?><svg xmlns="http://www.w3.org/2000/svg" xmlns:xlink="http://www.w3.org/1999/xlink" contentStyleType="text/css" height="1150px" preserveAspectRatio="none" style="width:1589px;height:1150px;background:#FFFFFF;" version="1.1" viewBox="0 0 1589 1150" width="1589px" zoomAndPan="magnify"><defs/><g><text fill="#000000" font-family="sans-serif" font-size="14" font-weight="bold" lengthAdjust="spacing" textLength="264" x="655.6287" y="22.9951">Zajedni&#269;ko IMS jezgro u 5G mre&#382;i</text><!--cluster cloud_1--><g id="cluster_cloud_1"><path d="M41.7005,77.7483 C51.6909,57.5628 69.404,60.7647 80.3549,76.721 C89.815,52.0208 109.8367,50.2782 124.0748,72.2447 C137.3375,51.692 152.4003,55.94 164.2004,73.7737 C177.0103,57.6085 196.8588,56.3988 206.3692,77.5065 C216.3427,59.7151 236.404,57.5023 247.8123,75.8617 C261.553,56.276 278.093,57.3694 287.9306,79.6058 C289.1917,78.0998 290.707,78.5051 291.4999,80.1382 C310.2874,94.8212 312.9711,112.3707 290.0126,125.6907 C306.7495,134.3068 310.8476,151.893 291.6769,162.1482 C308.7603,175.1185 309.8701,191.4466 289.9243,202.8213 C312.2614,213.319 314.3812,232.1002 294.4275,246.9168 C311.336,261.7467 313.1607,273.9051 292.4976,286.9225 C313.6172,297.4866 313.9419,314.364 298.433,329.9776 C316.6288,344.1308 310.6911,361.2624 291.5324,368.771 C313.4089,380.7004 314.2201,396.8823 293.4362,410.7466 C312.8526,421.1524 312.3074,434.1153 296.8941,447.7738 C317.7212,458.2969 316.2555,476.5783 296.9989,487.2079 C316.842,503.5895 316.3437,517.6512 293.0503,530.0577 C314.9411,541.3304 315.385,559.9057 293.8854,572.0416 C310.9572,582.4331 316.0597,601.2599 294.5443,612.2832 C309.3454,631.1663 308.9703,651.3269 280.9306,657.2358 C285.4899,658.2114 286.1936,661.4961 283.1364,664.7172 C272.6184,685.1478 256.2743,680.2449 245.3321,665.1689 C234.5437,689.1652 217.7703,685.4736 202.7574,669.6903 C191.3617,689.3089 179.9166,686.7161 166.7193,671.5572 C153.2076,688.8898 132.2362,692.3428 121.6703,668.3463 C106.3099,687.7841 93.3786,686.4576 82.3629,664.246 C61.7183,681.3165 39.9546,678.5955 31.9306,650.2358 C36.4842,649.3891 38.1066,651.4778 37.5326,655.7967 C17.0378,645.7232 12.7134,632.4017 31.5444,616.3574 C12.5733,599.1874 11.8652,581.844 37.2594,570.1627 C16.9789,556.4693 16.3071,544.1663 36.4452,529.6604 C19.7445,522.932 17.1711,505.7642 30.1602,493.8282 C10.6269,481.7205 6,462.2463 28.8033,448.861 C10.2829,438.4367 8.2257,418.5232 28.859,408.1524 C10.092,397.4747 10.3938,380.8047 28.0956,369.4085 C11.9552,354.2888 11.8281,342.1574 31.0155,329.6308 C13.5632,315.4872 15,299.9917 33.204,287.7094 C16.0695,274.0115 12.1975,259.5571 34.1464,246.7587 C13.2555,236.0363 10.4767,220.2162 31.6189,206.833 C10.1924,196.2214 12.6533,176.519 30.8249,165.1531 C12.3628,150.2381 15.4546,132.6204 36.048,122.4864 C11.6108,106.5285 14.2773,85.7268 38.9306,72.6058 C41.8421,73.0525 43.6066,74.7067 41.7005,77.7483 " fill="none" style="stroke:#181818;stroke-width:1.0;"/><text fill="#000000" font-family="sans-serif" font-size="14" font-weight="bold" lengthAdjust="spacing" textLength="142" x="88.9306" y="90.6009">5G mobilna mre&#382;a</text></g><!--cluster _1--><g id="cluster__1"><rect fill="none" height="170.59" rx="2.5" ry="2.5" style="stroke:none;stroke-width:1.0;" width="200" x="55.9306" y="462.6458"/></g><!--cluster _1--><g id="cluster__1"><rect fill="none" height="103.59" rx="2.5" ry="2.5" style="stroke:none;stroke-width:1.0;" width="152" x="79.9306" y="505.6458"/></g><!--cluster cloud_2--><g id="cluster_cloud_2"><path d="M557.8651,83.3195 C575.4007,47.82 609.4062,47.3612 628.5078,81.7363 C651.8365,50.3217 676.6908,50.6813 698.6389,83.2497 C715.8009,50.6518 746.6374,54.6766 765.816,80.9485 C792.9102,48.8197 816.8881,53.586 840.6695,84.8595 C857.6379,46.4529 890.6383,43.2969 912.2733,80.4364 C933.8153,49.59 957.7597,49.1999 975.8852,83.7592 C999.2527,53.0738 1029.375,44.6097 1051.7674,84.8032 C1075.8974,54.2837 1094.0563,61.3549 1112.154,90.8708 C1133.9705,57.21 1158.0427,53.6019 1183.1397,87.4199 C1203.4657,48.1212 1237.2962,59.2519 1256.0659,89.0622 C1273.718,57.9275 1298.8596,55.1875 1317.7096,87.9056 C1348.355,49.7387 1372.3684,54.8158 1398.2789,92.9081 C1418.759,60.5764 1445.7045,58.2378 1466.5275,92.557 C1486.6375,59.4967 1506.1678,60.1449 1530.9306,87.6058 C1534.483,87.2894 1535.5413,90.1457 1533.9956,92.8238 C1568.159,107.174 1572.393,138.3883 1542.5466,160.7915 C1572.6902,186.2692 1572.9744,218.7546 1533.6601,236.0285 C1574.7781,253.667 1571.2111,279.261 1543.6328,306.6063 C1576.7834,329.8532 1570.3738,361.9378 1538.7561,380.9353 C1571.5309,397.4155 1569.1319,427.5525 1540.0786,445.303 C1569.1282,469.8672 1572.8412,494.0641 1537.6352,516.4206 C1576.1803,539.7508 1581.5119,565.6993 1543.5049,594.765 C1576.2091,614.2865 1579.013,637.4058 1545.622,659.1022 C1575.2046,684.7284 1582.2574,719.3328 1537.8109,737.5918 C1565.0354,753.255 1563.5147,782.0589 1537.3328,797.2945 C1578.4443,819.0755 1576.1055,855.4616 1539.5033,879.2996 C1577.9314,900.7372 1573.7041,926.4235 1541.8597,950.1968 C1577.1304,968.7032 1575.051,1001.2207 1540.0356,1017.8315 C1565.6492,1045.547 1560.5686,1074.6727 1523.9306,1088.1258 C1526.4729,1087.6112 1528.3781,1089.2866 1527.6299,1091.9527 C1508.9214,1121.5152 1489.8907,1128.9761 1465.8312,1097.3577 C1438.3388,1135.7213 1413.2341,1135.9172 1390.0732,1093.3053 C1375.0052,1124.2496 1340.5707,1126.9321 1320.2287,1099.6294 C1299.7284,1133.5231 1268.3181,1133.9661 1247.6778,1099.7786 C1227.669,1127.3682 1206.7256,1131.8793 1187.7511,1098.7576 C1172.1303,1133.6927 1141.8082,1132.3221 1120.5058,1104.8828 C1098.1137,1137.1962 1071.3467,1137.2329 1051.2163,1102.5439 C1026.5102,1139.7091 997.2809,1143.3057 971.8623,1103.2764 C952.7558,1129.818 922.8104,1136.6309 906.7891,1100.0937 C884.4437,1134.4997 851.2244,1136.8695 833.4639,1095.6483 C814.3357,1135.3594 791.1623,1131.4505 764.9991,1102.6818 C741.0857,1130.92 718.4434,1118.5687 705.6801,1090.8597 C684.4163,1126.8363 658.0887,1121.515 636.0538,1091.6755 C609.3673,1126.7774 565.812,1119.5749 547.9306,1081.1258 C553.5626,1082.9374 554.083,1088.0698 549.3742,1091.3425 C520.3328,1065.0602 513.3049,1036.8255 554.7516,1015.5438 C523.5314,996.3851 516.8332,969.4763 551.6395,947.3063 C518.4927,921.6024 519.7999,895.7295 557.7296,876.105 C520.0798,856.7446 521.3713,834.4732 550.393,807.9374 C510.4708,781.4436 518.778,748.6153 555.5289,726.986 C528.5078,712.5705 521.301,685.8624 550.8609,667.0408 C514.7338,647.3676 513.6735,615.3591 548.055,593.0134 C520.2391,574.2707 521.2315,542.0167 551.3906,526.167 C509.0827,497.5206 519.4561,471.8507 552.7009,444.4152 C519.3471,419.5818 526.3833,398.4056 555.4816,376.1148 C521.5073,358.3086 520.8904,327.9867 555.0453,309.7327 C521.7028,285.7142 519.3777,255.1311 556.0676,232.0342 C520.5084,213.7899 515.9771,186.7003 550.428,162.7568 C512.588,133.6606 518.8961,105.653 554.9306,80.6058 C557.1773,80.0745 558.3641,80.8817 557.8651,83.3195 " fill="none" style="stroke:#181818;stroke-width:1.0;"/><text fill="#000000" font-family="sans-serif" font-size="14" font-weight="bold" lengthAdjust="spacing" textLength="104" x="987.4306" y="98.6009">Fiksna mre&#382;a</text></g><!--cluster _1--><g id="cluster__1"><rect fill="none" height="703.34" rx="2.5" ry="2.5" style="stroke:none;stroke-width:1.0;" width="951" x="563.9306" y="368.7858"/></g><!--cluster zajednicko_jezgro--><g id="cluster_zajednicko_jezgro"><rect fill="#EEEEEE" height="636.34" rx="2.5" ry="2.5" style="stroke:#000000;stroke-width:1.0;" width="661" x="587.9306" y="411.7858"/><text fill="#000000" font-family="sans-serif" font-size="14" font-weight="bold" lengthAdjust="spacing" textLength="141" x="847.9306" y="426.7809">Zajedni&#269;ko jezgro</text></g><!--cluster 4--><g id="cluster_4"><rect fill="#FFFFFF" height="553.34" rx="2.5" ry="2.5" style="stroke:#000000;stroke-width:1.0;" width="597" x="619.9306" y="462.7858"/></g><!--cluster _1--><g id="cluster__1"><rect fill="none" height="87.3" rx="2.5" ry="2.5" style="stroke:none;stroke-width:1.0;" width="415" x="689.9306" y="513.7858"/></g><!--cluster _2--><g id="cluster__2"><rect fill="none" height="87.3" rx="2.5" ry="2.5" style="stroke:none;stroke-width:1.0;" width="425" x="661.9306" y="697.2358"/></g><!--cluster _3--><g id="cluster__3"><rect fill="none" height="103.29" rx="2.5" ry="2.5" style="stroke:none;stroke-width:1.0;" width="509" x="659.9306" y="816.5358"/></g><!--cluster _1--><g id="cluster__1"><rect fill="none" height="103.59" rx="2.5" ry="2.5" style="stroke:none;stroke-width:1.0;" width="198" x="1292.9306" y="505.6458"/></g><!--entity 0--><g id="elem_0"><rect fill="none" height="36.2969" rx="2.5" ry="2.5" style="stroke:none;stroke-width:0.5;" width="29" x="141.4306" y="107.6058"/></g><!--entity 1--><g id="elem_1"><rect fill="#FFFFFF" height="36.2969" rx="2.5" ry="2.5" style="stroke:#000000;stroke-width:0.5;" width="167" x="72.4306" y="203.8958"/><text fill="#000000" font-family="sans-serif" font-size="14" lengthAdjust="spacing" textLength="147" x="82.4306" y="226.8909">5G UE (VoNR telefon)</text></g><!--entity 2--><g id="elem_2"><rect fill="#FFFFFF" height="36.2969" rx="2.5" ry="2.5" style="stroke:#000000;stroke-width:0.5;" width="49" x="131.4306" y="308.3458"/><text fill="#000000" font-family="sans-serif" font-size="14" lengthAdjust="spacing" textLength="29" x="141.4306" y="331.3409">gNB</text></g><!--entity 3--><g id="elem_3"><rect fill="#FFFFFF" height="52.5938" rx="2.5" ry="2.5" style="stroke:#000000;stroke-width:0.5;" width="119" x="96.4306" y="540.6458"/><text fill="#000000" font-family="sans-serif" font-size="14" lengthAdjust="spacing" textLength="99" x="106.4306" y="563.6409">5G core (5GC)</text><text fill="#000000" font-family="sans-serif" font-size="14" lengthAdjust="spacing" textLength="95" x="108.4306" y="579.9378">AMF/SMF/UPF</text></g><!--entity 6--><g id="elem_6"><rect fill="#FFFFFF" height="52.5938" rx="2.5" ry="2.5" style="stroke:#000000;stroke-width:0.5;" width="174" x="1304.9306" y="300.1958"/><text fill="#000000" font-family="sans-serif" font-size="14" lengthAdjust="spacing" textLength="154" x="1314.9306" y="323.1909">Fiksna pristupna ta&#269;ka</text><text fill="#000000" font-family="sans-serif" font-size="14" lengthAdjust="spacing" textLength="85" x="1349.4306" y="339.4878">(xDSL/FTTH)</text></g><!--entity 7--><g id="elem_7"><rect fill="#FFFFFF" height="36.2969" rx="2.5" ry="2.5" style="stroke:#000000;stroke-width:0.5;" width="140" x="1321.9306" y="203.8958"/><text fill="#000000" font-family="sans-serif" font-size="14" lengthAdjust="spacing" textLength="120" x="1331.9306" y="226.8909">CPE/Home router</text></g><!--entity 8--><g id="elem_8"><rect fill="#FFFFFF" height="36.2969" rx="2.5" ry="2.5" style="stroke:#000000;stroke-width:0.5;" width="170" x="1306.9306" y="107.6058"/><text fill="#000000" font-family="sans-serif" font-size="14" lengthAdjust="spacing" textLength="150" x="1316.9306" y="130.6009">SIP telefon/Softphone</text></g><!--entity _1--><g id="elem__1"><rect fill="none" height="36.2969" rx="2.5" ry="2.5" style="stroke:none;stroke-width:0.5;" width="36" x="705.9306" y="548.7858"/></g><!--entity _2--><g id="elem__2"><rect fill="#000080" height="36.2969" rx="2.5" ry="2.5" style="stroke:#000000;stroke-width:0.5;" width="71" x="841.4306" y="548.7858"/><text fill="#FFFFFF" font-family="sans-serif" font-size="14" font-weight="bold" lengthAdjust="spacing" textLength="51" x="851.4306" y="571.7809">I-CSCF</text></g><!--entity _3--><g id="elem__3"><rect fill="#000080" height="36.2969" rx="2.5" ry="2.5" style="stroke:#000000;stroke-width:0.5;" width="77" x="1012.4306" y="548.7858"/><text fill="#FFFFFF" font-family="sans-serif" font-size="14" font-weight="bold" lengthAdjust="spacing" textLength="57" x="1022.4306" y="571.7809">AS/TAS</text></g><!--entity _1--><g id="elem__1"><rect fill="#000080" height="36.2969" rx="2.5" ry="2.5" style="stroke:#000000;stroke-width:0.5;" width="65" x="678.4306" y="732.2358"/><text fill="#FFFFFF" font-family="sans-serif" font-size="14" font-weight="bold" lengthAdjust="spacing" textLength="45" x="688.4306" y="755.2309">MGCF</text></g><!--entity _2--><g id="elem__2"><rect fill="#000080" height="36.2969" rx="2.5" ry="2.5" style="stroke:#000000;stroke-width:0.5;" width="77" x="843.4306" y="732.2358"/><text fill="#FFFFFF" font-family="sans-serif" font-size="14" font-weight="bold" lengthAdjust="spacing" textLength="57" x="853.4306" y="755.2309">S-CSCF</text></g><!--entity _3--><g id="elem__3"><rect fill="#000080" height="36.2969" rx="2.5" ry="2.5" style="stroke:#000000;stroke-width:0.5;" width="51" x="1020.4306" y="732.2358"/><text fill="#FFFFFF" font-family="sans-serif" font-size="14" font-weight="bold" lengthAdjust="spacing" textLength="31" x="1030.4306" y="755.2309">HSS</text></g><!--entity _1--><g id="elem__1"><rect fill="#000080" height="36.2969" rx="2.5" ry="2.5" style="stroke:#000000;stroke-width:0.5;" width="60" x="683.9306" y="859.5358"/><text fill="#FFFFFF" font-family="sans-serif" font-size="14" font-weight="bold" lengthAdjust="spacing" textLength="40" x="693.9306" y="882.5309">PCRF</text></g><!--entity _2--><g id="elem__2"><rect fill="#000080" height="36.2969" rx="2.5" ry="2.5" style="stroke:#000000;stroke-width:0.5;" width="77" x="843.4306" y="859.5358"/><text fill="#FFFFFF" font-family="sans-serif" font-size="14" font-weight="bold" lengthAdjust="spacing" textLength="57" x="853.4306" y="882.5309">P-CSCF</text></g><!--entity _3--><g id="elem__3"><rect fill="#000080" height="36.2969" rx="2.5" ry="2.5" style="stroke:#000000;stroke-width:0.5;" width="40" x="1020.9306" y="859.5358"/><text fill="#FFFFFF" font-family="sans-serif" font-size="14" font-weight="bold" lengthAdjust="spacing" textLength="20" x="1030.9306" y="882.5309">UE</text></g><!--entity _4--><g id="elem__4"><rect fill="none" height="36.2969" rx="2.5" ry="2.5" style="stroke:none;stroke-width:0.5;" width="36" x="1142.9306" y="955.8258"/></g><!--entity 5--><g id="elem_5"><rect fill="#FFFFFF" height="52.5938" rx="2.5" ry="2.5" style="stroke:#000000;stroke-width:0.5;" width="166" x="1308.9306" y="540.6458"/><text fill="#000000" font-family="sans-serif" font-size="14" lengthAdjust="spacing" textLength="64" x="1359.9306" y="563.6409">AGF/BNG</text><text fill="#000000" font-family="sans-serif" font-size="14" lengthAdjust="spacing" textLength="146" x="1318.9306" y="579.9378">fixed access gateway</text></g><!--entity rectangle_empty--><g id="elem_rectangle_empty"><rect fill="none" height="36.2969" rx="2.5" ry="2.5" style="stroke:none;stroke-width:0.5;" width="135" x="388.4306" y="107.6058"/></g><!--link cloud_1 to rectangle_empty--><!--link 0 to 1--><!--link 1 to 2--><g id="link_1_2"><path d="M155.9306,240.2358 C155.9306,259.2958 155.9306,283.0558 155.9306,302.1558 " fill="none" id="1-to-2" style="stroke:#181818;stroke-width:1.0;"/><polygon fill="#181818" points="155.9306,308.1558,159.9306,299.1558,155.9306,303.1558,151.9306,299.1558,155.9306,308.1558" style="stroke:#181818;stroke-width:1.0;"/></g><!--link 2 to 3--><g id="link_2_3"><path d="M155.9306,344.9658 C155.9306,387.1858 155.9306,484.9358 155.9306,534.1758 " fill="none" id="2-to-3" style="stroke:#181818;stroke-width:1.0;"/><polygon fill="#181818" points="155.9306,540.1758,159.9306,531.1758,155.9306,535.1758,151.9306,531.1758,155.9306,540.1758" style="stroke:#181818;stroke-width:1.0;"/></g><!--link 3 to 4--><g id="link_3_4"><path d="M215.5606,589.1258 C271.2506,589.1258 361.1813,589.1258 464.7516,589.1258 C490.6441,589.1258 517.3892,589.1258 544.6649,589.1258 C558.3027,589.1258 572.0731,589.1258 585.936,589.1258 C592.8675,589.1258 599.822,589.1258 606.7946,589.1258 C610.2809,589.1258 607.7718,589.1258 611.2665,589.1258 " fill="none" id="3-to-4" style="stroke:#181818;stroke-width:1.0;"/><polygon fill="#181818" points="617.2665,589.1258,608.2665,585.1258,612.2665,589.1258,608.2665,593.1258,617.2665,589.1258" style="stroke:#181818;stroke-width:1.0;"/></g><!--reverse link 4 to 5--><g id="link_4_5"><path d="M1223.0694,567.1258 C1224.348,567.1258 1220.2273,567.1258 1221.7495,567.1258 C1227.8384,567.1258 1235.7913,567.1258 1244.9319,567.1258 C1263.2131,567.1258 1286.2456,567.1258 1308.6206,567.1258 " fill="none" id="4-backto-5" style="stroke:#181818;stroke-width:1.0;"/><polygon fill="#181818" points="1217.0694,567.1258,1226.0694,571.1258,1222.0694,567.1258,1226.0694,563.1258,1217.0694,567.1258" style="stroke:#181818;stroke-width:1.0;"/></g><!--link 6 to 5--><g id="link_6_5"><path d="M1391.9306,353.1458 C1391.9306,399.3658 1391.9306,487.8658 1391.9306,534.1658 " fill="none" id="6-to-5" style="stroke:#181818;stroke-width:1.0;"/><polygon fill="#181818" points="1391.9306,540.1658,1395.9306,531.1658,1391.9306,535.1658,1387.9306,531.1658,1391.9306,540.1658" style="stroke:#181818;stroke-width:1.0;"/></g><!--link 7 to 6--><g id="link_7_6"><path d="M1391.9306,240.2358 C1391.9306,256.7258 1391.9306,275.2158 1391.9306,293.8958 " fill="none" id="7-to-6" style="stroke:#181818;stroke-width:1.0;"/><polygon fill="#181818" points="1391.9306,299.8958,1395.9306,290.8958,1391.9306,294.8958,1387.9306,290.8958,1391.9306,299.8958" style="stroke:#181818;stroke-width:1.0;"/></g><!--link 8 to 7--><g id="link_8_7"><path d="M1391.9306,144.3158 C1391.9306,161.3658 1391.9306,180.5058 1391.9306,197.5358 " fill="none" id="8-to-7" style="stroke:#181818;stroke-width:1.0;"/><polygon fill="#181818" points="1391.9306,203.5358,1395.9306,194.5358,1391.9306,198.5358,1387.9306,194.5358,1391.9306,203.5358" style="stroke:#181818;stroke-width:1.0;"/></g><!--link _2 to _2--><!--link _2 to _2--><g id="link__2__2"><path d="M889.4306,585.5358 C889.4306,620.7858 889.4306,696.9258 889.4306,732.0058 " fill="none" id="_2-_2" style="stroke:#000000;stroke-width:1.0;"/><text fill="#000000" font-family="sans-serif" font-size="14" font-weight="bold" lengthAdjust="spacing" textLength="27" x="856.4306" y="654.7709">Mw</text></g><!--link _2 to _2--><!--link _2 to _2--><g id="link__2__2"><path d="M894.7606,768.8958 C894.7606,793.0258 894.7606,835.0058 894.7606,859.1458 " fill="none" id="_2-_2-1" style="stroke:#000000;stroke-width:1.0;"/><text fill="#000000" font-family="sans-serif" font-size="14" font-weight="bold" lengthAdjust="spacing" textLength="27" x="861.7606" y="810.0209">Mw</text></g><!--link _3 to _4--><!--link _1 to _2--><!--link _2 to _3--><g id="link__2__3"><path d="M912.5606,558.1258 C941.4906,558.1258 982.2406,558.1258 1012.0206,558.1258 " fill="none" id="_2-_3" style="stroke:#000000;stroke-width:1.0;"/><text fill="#000000" font-family="sans-serif" font-size="14" font-weight="bold" lengthAdjust="spacing" textLength="22" x="939.2906" y="554.1209">Ma</text></g><!--link _1 to _2--><g id="link__1__2"><path d="M743.7106,744.1258 C766.4506,744.1258 792.6806,744.1258 792.6806,744.1258 C792.6806,744.1258 792.6806,561.1258 792.6806,561.1258 C792.6806,561.1258 818.2406,561.1258 841.2006,561.1258 " fill="none" id="_1-_2" style="stroke:#000000;stroke-width:1.0;"/><text fill="#000000" font-family="sans-serif" font-size="14" font-weight="bold" lengthAdjust="spacing" textLength="23" x="763.6806" y="648.8409">Mg</text></g><!--link _2 to _3--><g id="link__2__3"><path d="M912.8206,576.1258 C937.7206,576.1258 966.4306,576.1258 966.4306,576.1258 C966.4306,576.1258 966.4306,744.1258 966.4306,744.1258 C966.4306,744.1258 997.1006,744.1258 1020.3406,744.1258 " fill="none" id="_2-_3-1" style="stroke:#000000;stroke-width:1.0;"/><text fill="#000000" font-family="sans-serif" font-size="14" font-weight="bold" lengthAdjust="spacing" textLength="20" x="940.4306" y="656.2709">Cx</text></g><!--link _3 to _2--><g id="link__3__2"><path d="M1012.0306,567.1258 C972.3006,567.1258 916.4306,567.1258 916.4306,567.1258 C916.4306,567.1258 916.4306,685.2158 916.4306,731.8058 " fill="none" id="_3-_2" style="stroke:#000000;stroke-width:1.0;"/><text fill="#000000" font-family="sans-serif" font-size="14" font-weight="bold" lengthAdjust="spacing" textLength="25" x="890.4306" y="615.6609">ISC</text></g><!--link _3 to _3--><g id="link__3__3"><path d="M1045.9306,585.5358 C1045.9306,620.7858 1045.9306,696.9258 1045.9306,732.0058 " fill="none" id="_3-_3" style="stroke:#000000;stroke-width:1.0;"/><text fill="#000000" font-family="sans-serif" font-size="14" font-weight="bold" lengthAdjust="spacing" textLength="20" x="1024.9306" y="654.7709">Sh</text></g><!--link _1 to _2--><g id="link__1__2"><path d="M743.9006,756.1258 C772.2406,756.1258 813.1506,756.1258 843.0706,756.1258 " fill="none" id="_1-_2-1" style="stroke:#000000;stroke-width:1.0;"/><text fill="#000000" font-family="sans-serif" font-size="14" font-weight="bold" lengthAdjust="spacing" textLength="23" x="764.4906" y="752.1209">Mg</text></g><!--link _2 to _3--><g id="link__2__3"><path d="M920.8006,756.1258 C951.4906,756.1258 993.4406,756.1258 1020.1206,756.1258 " fill="none" id="_2-_3-2" style="stroke:#000000;stroke-width:1.0;"/><text fill="#000000" font-family="sans-serif" font-size="14" font-weight="bold" lengthAdjust="spacing" textLength="20" x="939.4606" y="752.1209">Cx</text></g><!--link _1 to _2--><g id="link__1__2"><path d="M744.3506,878.1258 C772.0606,878.1258 813.1106,878.1258 843.1606,878.1258 " fill="none" id="_1-_2-2" style="stroke:#000000;stroke-width:1.0;"/><text fill="#000000" font-family="sans-serif" font-size="14" font-weight="bold" lengthAdjust="spacing" textLength="19" x="758.7606" y="874.1209">Rx</text></g><!--link _2 to _3--><g id="link__2__3"><path d="M920.8306,878.1258 C952.4506,878.1258 995.8006,878.1258 1020.8406,878.1258 " fill="none" id="_2-_3-3" style="stroke:#000000;stroke-width:1.0;"/><text fill="#000000" font-family="sans-serif" font-size="14" font-weight="bold" lengthAdjust="spacing" textLength="26" x="938.8306" y="874.1209">Gm</text></g><!--SRC=[hLLHR-8u47xthnXb7xRx03G9RLShL8boXLRQLgXfzs6l9-GI5xm4EtBCKdhY9znVsgUz_tKJ9o6ai8TPWTJA6N_ppSmtzZXX6X8MKqMrL50dMiQW9Jn9hUKKGgxOK7Cfo9Y731BD59Dw4JEIJBX8lQOGSS5I4qYbnv8GpNN4mFbAlx5Gy9__J2HStmJmZRsEb8GPdFHWgjY_FxX3I2lHYuYTapGA5IFq-vi0N4d5NwNGD6f7V2IcJ6WOuZ-cSFE23YT8D1DXHqQOydpCDKDx7JCCcJ04coYjg4WmNsGn-rsatxQpB9a6puZ9wRR2qLvu3ALYluZyxjBy2YIV9hy02lfzyIPOKLjc2rAji3DHQCYMfDN8vLlhHbN92wb2fZAofmW3LcsjLbRg-Nb5XYKXmqZEGd3INiad7WcQzOmwG1DmpEx0TKoCCg9px9ICrHqaUhY4eo_ozWuqYnXg-y5mkLNSwFR2cBsg6MEjvPhfjsFxRNZJegEJNkV3esZVT1i1_ZtqkoQQRpoMkQn5yLq-IROMxcqKlZE1zTkGtGG7Mgqq9yGZysksFvp8GNvH2fAojRSoP06BmJq-tWoGTgD8mPpSZBUvuh78ztye3MeDjjpkSbth19rkweRdFCl0AUGgVxjvsa7ZlXsyuV6jU9PRw_KiwhtfRQHkZlZkT8C3bNqL7B9ctwBcVkVkDslk7wZcXyi3bjpSNd81NW8fF_UvlkrUjt5nstiKp_o5XK27GvOaCAAQpUd2Z8QJjH5ISSsdIAnuecSnhZJ5AK0VnT7B7y7dHlV-_YgRXATLlqx_id4bfmpmYS2Npq3Egf3WkbyCqqOWdtKybe8PuCTqZAqXLyi1cyPwKQrsDV86BjJ-p3R-KdmqrhLpUED9Zaj8AES24Iv1jtpj4M-rzeaFjOAcIPhGohzGgnFycCKrhFaqNvsHitpraRolrMhlrzwqj25jfUJyVemJKgJIkuMf-hOPK_b-RfW3_ih0RLPCvQkwqi6h3zpwnaYkDrFpmDjGO9SJxdZ41hGtis_3xEzDsynROA76bYDZew6bqFc1iG3xdt20KyUI5- -C1MswazAEm9RNw6jr7bBUkJMlfGvUfaFdnOxOtpFXww1pSDuqts3i49lxuUuZX6VREU_t5BPcjfF2NpiJn09ihqNE37UOiqNI_Zvo-9aSlIau_m40]--></g></svg>