<?xml version="1.0" encoding="us-ascii" standalone="no"?><svg xmlns="http://www.w3.org/2000/svg" xmlns:xlink="http://www.w3.org/1999/xlink" contentStyleType="text/css" height="1140px" preserveAspectRatio="none" style="width:1571px;height:1140px;background:#FFFFFF;" version="1.1" viewBox="0 0 1571 1140" width="1571px" zoomAndPan="magnify"><defs/><g><text fill="#000000" font-family="sans-serif" font-size="14" font-weight="bold" lengthAdjust="spacing" textLength="264" x="646.9764" y="22.9951">Zajedni&#269;ko IMS jezgro u 5G mre&#382;i</text><!--cluster cloud_1--><g id="cluster_cloud_1"><path d="M60.7716,79.7947 C80.2797,52.069 109.8745,58.0165 121.0156,88.4601 C141.4408,46.6559 163.9867,43.7988 194.9446,78.2486 C216.6148,48.1217 237.7171,49.9884 259.7646,77.8266 C285.2402,52.7614 304.7921,54.8861 324.3086,84.8199 C339.1533,52.6356 367.9087,43.2969 391.3895,75.8746 C415.8761,44.8378 436.0044,44.5993 455.7789,80.4132 C474.2284,51.858 506.9874,48.1132 522.0178,83.9314 C538.3721,53.8024 570.5324,50.5397 590.1805,80.1747 C610.5174,51.2607 635.0131,53.1197 649.9026,85.4838 C667.2227,56.6796 690.4245,46.4742 715.1767,77.3558 C737.6588,48.0126 763.0234,54.513 778.8377,84.5092 C801.1345,44.4603 831.6832,49.3219 854.0517,84.4375 C877.4097,55.9317 900.2896,51.6024 921.9969,86.2144 C940.6868,58.5211 962.8376,50.8043 983.8233,83.8784 C989.759,86.8956 990.5051,90.573 986.5422,95.8401 C1027.3782,111.887 1021.1538,143.3206 994.1631,166.6657 C1017.1646,186.675 1016.3648,211.7804 987.4157,225.8688 C1029.1832,250.3131 1026.5182,281.6932 989.9431,308.5327 C1023.8904,326.3636 1028.5175,352.8863 996.4734,377.0104 C1031.5002,393.6578 1030.7769,416.9394 1002.5743,439.7366 C1034.3884,465.1378 1035.8068,494.4183 995.0549,512.2998 C1027.4267,532.4201 1031.2471,566.7347 996.7624,588.3559 C1029.547,608.1811 1026.2507,644.5594 994.6011,662.5066 C1028.7229,685.0608 1024.6134,713.4109 993.4528,734.9301 C1030.9824,751.3985 1031.1491,774.9761 1001.354,799.6621 C1030.1162,830.7064 1029.8676,856.5264 988.3318,875.4997 C1025.8218,896.7221 1025.054,924.2732 988.8641,946.0515 C1026.6638,964.8585 1022.0592,991.2709 995.7216,1016.3358 C1018.0768,1045.3381 1019.9969,1073.5909 976.8233,1084.3984 C985.1564,1081.9445 988.5645,1086.3504 986.9677,1094.1872 C965.0433,1126.0164 934.876,1115.8679 919.5084,1086.9106 C903.7531,1125.9063 868.9004,1129.9351 846.2501,1093.6175 C833.1503,1121.6554 801.6611,1125.8756 782.7885,1100.4726 C761.642,1129.8033 730.4332,1125.6894 715.7579,1093.4298 C701.6883,1127.4632 669.529,1132.9557 649.5169,1099.2401 C626.983,1131.1821 608.7976,1121.8207 588.7991,1096.5494 C567.0155,1133.199 541.223,1133.1619 518.9253,1097.0431 C502.1374,1124.0522 476.3258,1123.6357 459.5513,1097.0282 C434.2315,1129.9485 410.8319,1126.2508 387.1396,1095.1864 C369.4389,1123.9385 343.4062,1123.347 324.7033,1096.3079 C301.9013,1127.9812 275.6095,1129.8634 251.3942,1097.9371 C231.4709,1121.6637 204.3472,1115.1313 192.2373,1088.7186 C174.1751,1132.862 144.0224,1131.3129 116.2671,1098.2574 C80.1629,1131.3038 57.0811,1121.2726 42.8233,1077.3984 C45.7691,1076.773 47.2121,1078.1887 46.3786,1081.1474 C17.1924,1057.7457 17.3495,1030.2958 53.4386,1013.7297 C15.7642,990.6686 18.5084,963.9779 53.4431,940.9212 C14.7968,924.8697 16.2888,898.3055 42.7858,872.1578 C10.7085,842.6883 15.0463,820.5445 52.1443,800.0533 C16.162,775.6658 17.2832,753.4704 49.3468,726.4952 C14.4127,703.6413 22.3256,681.427 51.1706,660.3311 C9.8986,640.6334 6,610.4272 45.2782,584.4726 C13.2395,561.4454 8.3289,536.902 46.5787,515.1942 C9.2505,494.9446 12.7631,460.3086 50.0266,443.654 C20.6112,423.7988 16.5878,401.5916 47.141,379.0575 C11.0555,361.2865 11.61,322.0283 42.3379,300.1883 C12.8996,277.1361 12.171,249.6109 48.0825,232.0697 C12.0674,211.7124 6.039,180.7288 43.4849,155.9352 C12.3843,130.4595 15.0079,97.0693 49.8233,76.8784 C54.7909,73.095 58.2482,74.4023 60.7716,79.7947 " fill="none" style="stroke:#181818;stroke-width:1.0;"/><text fill="#000000" font-family="sans-serif" font-size="14" font-weight="bold" lengthAdjust="spacing" textLength="142" x="442.3233" y="94.8735">5G mobilna mre&#382;a</text></g><!--cluster _1--><g id="cluster__1"><rect fill="none" height="687.34" rx="2.5" ry="2.5" style="stroke:none;stroke-width:1.0;" width="885" x="66.8233" y="373.0584"/></g><!--cluster _1--><g id="cluster__1"><rect fill="none" height="103.59" rx="2.5" ry="2.5" style="stroke:none;stroke-width:1.0;" width="152" x="90.8233" y="509.9184"/></g><!--cluster zajednicko_jezgro--><g id="cluster_zajednicko_jezgro"><rect fill="#EEEEEE" height="620.34" rx="2.5" ry="2.5" style="stroke:#000000;stroke-width:1.0;" width="661" x="266.8233" y="416.0584"/><text fill="#000000" font-family="sans-serif" font-size="14" font-weight="bold" lengthAdjust="spacing" textLength="141" x="526.8233" y="431.0535">Zajedni&#269;ko jezgro</text></g><!--cluster 4--><g id="cluster_4"><rect fill="#FFFFFF" height="537.34" rx="2.5" ry="2.5" style="stroke:#000000;stroke-width:1.0;" width="597" x="298.8233" y="467.0584"/></g><!--cluster _1--><g id="cluster__1"><rect fill="none" height="87.3" rx="2.5" ry="2.5" style="stroke:none;stroke-width:1.0;" width="415" x="368.8233" y="518.0584"/></g><!--cluster _2--><g id="cluster__2"><rect fill="none" height="87.3" rx="2.5" ry="2.5" style="stroke:none;stroke-width:1.0;" width="425" x="340.8233" y="685.5084"/></g><!--cluster _3--><g id="cluster__3"><rect fill="none" height="103.29" rx="2.5" ry="2.5" style="stroke:none;stroke-width:1.0;" width="509" x="338.8233" y="804.8084"/></g><!--cluster cloud_2--><g id="cluster_cloud_2"><path d="M1263.1645,85.2756 C1275.639,67.1134 1294.3993,67.0075 1306.9224,85.2172 C1319.9407,60.5641 1340.2503,60.8393 1352.4681,85.9499 C1365.0731,65.4787 1377.5253,64.2384 1393.258,82.6705 C1403.777,60.6267 1425.2873,57.3684 1437.4458,81.0874 C1452.4671,60.3882 1470.9418,62.2737 1485.1486,82.0473 C1501.2823,63.9154 1524.289,69.1834 1531.8233,91.8784 C1533.8483,92.8279 1534.7587,94.11 1532.8821,96.0498 C1551.4722,107.2538 1554.4098,121.4288 1538.4019,137.2663 C1556.8678,151.1014 1554.495,162.7606 1535.9858,174.1752 C1557.8629,184.8672 1558.6528,202.9618 1540.3642,217.6948 C1556.9491,230.1013 1555.482,243.0541 1537.8663,253.0438 C1560.0145,262.6414 1556.154,281.2605 1540.4727,293.307 C1562.9625,303.6881 1563.1709,322.6295 1541.8493,334.4755 C1557.2832,344.4584 1560.1004,360.6796 1542.7626,371.4715 C1562.7386,383.8934 1564.9528,396.6893 1544.4831,410.877 C1560.178,423.4704 1561.67,442.0898 1539.5769,449.9368 C1559.35,462.5221 1562.3488,478.5787 1542.0939,493.4779 C1556.6826,505.9186 1554.8846,521.3183 1537.6068,529.825 C1556.7386,542.1716 1556.5888,556.9994 1539.3064,570.8545 C1558.6991,582.8225 1556.5675,599.9033 1539.2192,611.793 C1554.2922,630.8481 1551.0272,648.6979 1524.8233,653.5084 C1528.2535,651.8616 1530.8205,653.9645 1530.8603,657.4762 C1519.6597,679.5614 1499.5202,679.7507 1484.107,662.4809 C1471.1209,682.0754 1454.4554,679.0162 1443.3646,660.4571 C1430.1157,685.8002 1409.2596,683.4572 1393.5911,663.0919 C1383.2323,683.4954 1364.3706,681.9308 1352.1492,665.1688 C1334.4124,688.6476 1316.5036,683.2855 1305.5259,658.623 C1286.3508,678.9626 1261.2742,676.2052 1253.8233,646.5084 C1255.7391,644.8955 1257.2688,644.9987 1258.2151,647.5347 C1242.9586,638.256 1241.5776,623.2776 1257.572,613.4101 C1237.5659,598.6293 1238.7062,585.2142 1258.0602,570.8852 C1239.5852,561.5075 1234.6148,541.0018 1253.8387,527.92 C1234.2696,517.7325 1234.9588,499.6346 1255.3167,491.0474 C1235.8833,475.8759 1237.4999,463.0227 1256.6349,449.0621 C1241.8352,436.7144 1241.4062,424.7704 1257.1918,412.8936 C1238.627,404.6976 1239.7034,387.5863 1253.4037,376.071 C1234.9671,362.9911 1237.7976,341.9193 1258.4389,333.4568 C1238.8036,324.032 1233.2674,306.1425 1253.4987,291.9705 C1240.6922,277.844 1242.0362,266.327 1258.1856,255.9702 C1237.0317,247.1267 1238.2244,229.9641 1254.1805,217.2791 C1231.0663,201.0822 1237.947,183.5786 1259.0188,172.1152 C1240.9718,160.7511 1238.0088,149.2014 1256.1425,135.0311 C1236.0238,119.2756 1233.4663,96.2029 1260.8233,84.8784 C1261.6501,83.9653 1262.6995,84.0562 1263.1645,85.2756 " fill="none" style="stroke:#181818;stroke-width:1.0;"/><text fill="#000000" font-family="sans-serif" font-size="14" font-weight="bold" lengthAdjust="spacing" textLength="104" x="1340.8233" y="102.8735">Fiksna mre&#382;a</text></g><!--cluster _1--><g id="cluster__1"><rect fill="none" height="170.59" rx="2.5" ry="2.5" style="stroke:none;stroke-width:1.0;" width="246" x="1269.8233" y="466.9184"/></g><!--cluster _1--><g id="cluster__1"><rect fill="none" height="103.59" rx="2.5" ry="2.5" style="stroke:none;stroke-width:1.0;" width="198" x="1293.8233" y="509.9184"/></g><!--entity 0--><g id="elem_0"><rect fill="none" height="36.2969" rx="2.5" ry="2.5" style="stroke:none;stroke-width:0.5;" width="29" x="152.3233" y="111.8784"/></g><!--entity 1--><g id="elem_1"><rect fill="#FFFFFF" height="36.2969" rx="2.5" ry="2.5" style="stroke:#000000;stroke-width:0.5;" width="167" x="83.3233" y="208.1684"/><text fill="#000000" font-family="sans-serif" font-size="14" lengthAdjust="spacing" textLength="147" x="93.3233" y="231.1635">5G UE (VoNR telefon)</text></g><!--entity 2--><g id="elem_2"><rect fill="#FFFFFF" height="36.2969" rx="2.5" ry="2.5" style="stroke:#000000;stroke-width:0.5;" width="49" x="142.3233" y="312.6184"/><text fill="#000000" font-family="sans-serif" font-size="14" lengthAdjust="spacing" textLength="29" x="152.3233" y="335.6135">gNB</text></g><!--entity 3--><g id="elem_3"><rect fill="#FFFFFF" height="52.5938" rx="2.5" ry="2.5" style="stroke:#000000;stroke-width:0.5;" width="119" x="107.3233" y="544.9184"/><text fill="#000000" font-family="sans-serif" font-size="14" lengthAdjust="spacing" textLength="99" x="117.3233" y="567.9135">5G core (5GC)</text><text fill="#000000" font-family="sans-serif" font-size="14" lengthAdjust="spacing" textLength="95" x="119.3233" y="584.2104">AMF/SMF/UPF</text></g><!--entity _1--><g id="elem__1"><rect fill="none" height="36.2969" rx="2.5" ry="2.5" style="stroke:none;stroke-width:0.5;" width="36" x="384.8233" y="553.0584"/></g><!--entity _2--><g id="elem__2"><rect fill="#000080" height="36.2969" rx="2.5" ry="2.5" style="stroke:#000000;stroke-width:0.5;" width="71" x="520.3233" y="553.0584"/><text fill="#FFFFFF" font-family="sans-serif" font-size="14" font-weight="bold" lengthAdjust="spacing" textLength="51" x="530.3233" y="576.0535">I-CSCF</text></g><!--entity _3--><g id="elem__3"><rect fill="#000080" height="36.2969" rx="2.5" ry="2.5" style="stroke:#000000;stroke-width:0.5;" width="77" x="691.3233" y="553.0584"/><text fill="#FFFFFF" font-family="sans-serif" font-size="14" font-weight="bold" lengthAdjust="spacing" textLength="57" x="701.3233" y="576.0535">AS/TAS</text></g><!--entity _1--><g id="elem__1"><rect fill="#000080" height="36.2969" rx="2.5" ry="2.5" style="stroke:#000000;stroke-width:0.5;" width="65" x="357.3233" y="720.5084"/><text fill="#FFFFFF" font-family="sans-serif" font-size="14" font-weight="bold" lengthAdjust="spacing" textLength="45" x="367.3233" y="743.5035">MGCF</text></g><!--entity _2--><g id="elem__2"><rect fill="#000080" height="36.2969" rx="2.5" ry="2.5" style="stroke:#000000;stroke-width:0.5;" width="77" x="522.3233" y="720.5084"/><text fill="#FFFFFF" font-family="sans-serif" font-size="14" font-weight="bold" lengthAdjust="spacing" textLength="57" x="532.3233" y="743.5035">S-CSCF</text></g><!--entity _3--><g id="elem__3"><rect fill="#000080" height="36.2969" rx="2.5" ry="2.5" style="stroke:#000000;stroke-width:0.5;" width="51" x="699.3233" y="720.5084"/><text fill="#FFFFFF" font-family="sans-serif" font-size="14" font-weight="bold" lengthAdjust="spacing" textLength="31" x="709.3233" y="743.5035">HSS</text></g><!--entity _1--><g id="elem__1"><rect fill="#000080" height="36.2969" rx="2.5" ry="2.5" style="stroke:#000000;stroke-width:0.5;" width="60" x="362.8233" y="847.8084"/><text fill="#FFFFFF" font-family="sans-serif" font-size="14" font-weight="bold" lengthAdjust="spacing" textLength="40" x="372.8233" y="870.8035">PCRF</text></g><!--entity _2--><g id="elem__2"><rect fill="#000080" height="36.2969" rx="2.5" ry="2.5" style="stroke:#000000;stroke-width:0.5;" width="77" x="522.3233" y="847.8084"/><text fill="#FFFFFF" font-family="sans-serif" font-size="14" font-weight="bold" lengthAdjust="spacing" textLength="57" x="532.3233" y="870.8035">P-CSCF</text></g><!--entity _3--><g id="elem__3"><rect fill="#000080" height="36.2969" rx="2.5" ry="2.5" style="stroke:#000000;stroke-width:0.5;" width="40" x="699.8233" y="847.8084"/><text fill="#FFFFFF" font-family="sans-serif" font-size="14" font-weight="bold" lengthAdjust="spacing" textLength="20" x="709.8233" y="870.8035">UE</text></g><!--entity _4--><g id="elem__4"><rect fill="none" height="36.2969" rx="2.5" ry="2.5" style="stroke:none;stroke-width:0.5;" width="36" x="821.8233" y="944.0984"/></g><!--entity 6--><g id="elem_6"><rect fill="#FFFFFF" height="52.5938" rx="2.5" ry="2.5" style="stroke:#000000;stroke-width:0.5;" width="174" x="1310.8233" y="304.4684"/><text fill="#000000" font-family="sans-serif" font-size="14" lengthAdjust="spacing" textLength="154" x="1320.8233" y="327.4635">Fiksna pristupna ta&#269;ka</text><text fill="#000000" font-family="sans-serif" font-size="14" lengthAdjust="spacing" textLength="85" x="1355.3233" y="343.7604">(xDSL/FTTH)</text></g><!--entity 7--><g id="elem_7"><rect fill="#FFFFFF" height="36.2969" rx="2.5" ry="2.5" style="stroke:#000000;stroke-width:0.5;" width="140" x="1330.8233" y="208.1684"/><text fill="#000000" font-family="sans-serif" font-size="14" lengthAdjust="spacing" textLength="120" x="1340.8233" y="231.1635">CPE/Home router</text></g><!--entity 8--><g id="elem_8"><rect fill="#FFFFFF" height="36.2969" rx="2.5" ry="2.5" style="stroke:#000000;stroke-width:0.5;" width="170" x="1318.8233" y="111.8784"/><text fill="#000000" font-family="sans-serif" font-size="14" lengthAdjust="spacing" textLength="150" x="1328.8233" y="134.8735">SIP telefon/Softphone</text></g><!--entity 5--><g id="elem_5"><rect fill="#FFFFFF" height="52.5938" rx="2.5" ry="2.5" style="stroke:#000000;stroke-width:0.5;" width="166" x="1309.8233" y="544.9184"/><text fill="#000000" font-family="sans-serif" font-size="14" lengthAdjust="spacing" textLength="64" x="1360.8233" y="567.9135">AGF/BNG</text><text fill="#000000" font-family="sans-serif" font-size="14" lengthAdjust="spacing" textLength="146" x="1319.8233" y="584.2104">fixed access gateway</text></g><!--entity rectangle_empty--><g id="elem_rectangle_empty"><rect fill="none" height="36.2969" rx="2.5" ry="2.5" style="stroke:none;stroke-width:0.5;" width="135" x="1084.3233" y="111.8784"/></g><!--link cloud_1 to rectangle_empty--><!--link 0 to 1--><!--link 1 to 2--><g id="link_1_2"><path d="M166.8233,244.5084 C166.8233,263.5684 166.8233,287.3284 166.8233,306.4284 " fill="none" id="1-to-2" style="stroke:#181818;stroke-width:1.0;"/><polygon fill="#181818" points="166.8233,312.4284,170.8233,303.4284,166.8233,307.4284,162.8233,303.4284,166.8233,312.4284" style="stroke:#181818;stroke-width:1.0;"/></g><!--link 2 to 3--><g id="link_2_3"><path d="M166.8233,349.2384 C166.8233,391.4584 166.8233,489.2084 166.8233,538.4484 " fill="none" id="2-to-3" style="stroke:#181818;stroke-width:1.0;"/><polygon fill="#181818" points="166.8233,544.4484,170.8233,535.4484,166.8233,539.4484,162.8233,535.4484,166.8233,544.4484" style="stroke:#181818;stroke-width:1.0;"/></g><!--link 3 to 4--><g id="link_3_4"><path d="M226.7433,593.3984 C237.5571,593.3984 249.6014,593.3984 262.6804,593.3984 C269.2198,593.3984 276.0179,593.3984 283.0502,593.3984 C286.5663,593.3984 290.1409,593.3984 293.7711,593.3984 C294.6786,593.3984 289.5896,593.3984 290.504,593.3984 " fill="none" id="3-to-4" style="stroke:#181818;stroke-width:1.0;"/><polygon fill="#181818" points="296.504,593.3984,287.504,589.3984,291.504,593.3984,287.504,597.3984,296.504,593.3984" style="stroke:#181818;stroke-width:1.0;"/></g><!--reverse link 4 to 5--><g id="link_4_5"><path d="M902.2958,571.3984 C903.1264,571.3984 898.6234,571.3984 899.5596,571.3984 C901.4321,571.3984 903.513,571.3984 905.7909,571.3984 C914.9023,571.3984 927.1653,571.3984 941.848,571.3984 C971.2133,571.3984 1010.2571,571.3984 1053.1233,571.3984 C1138.8558,571.3984 1239.8783,571.3984 1309.3433,571.3984 " fill="none" id="4-backto-5" style="stroke:#181818;stroke-width:1.0;"/><polygon fill="#181818" points="896.2958,571.3984,905.2958,575.3984,901.2958,571.3984,905.2958,567.3984,896.2958,571.3984" style="stroke:#181818;stroke-width:1.0;"/></g><!--link 6 to 5--><g id="link_6_5"><path d="M1393.3233,357.4184 C1393.3233,403.6384 1393.3233,492.1384 1393.3233,538.4384 " fill="none" id="6-to-5" style="stroke:#181818;stroke-width:1.0;"/><polygon fill="#181818" points="1393.3233,544.4384,1397.3233,535.4384,1393.3233,539.4384,1389.3233,535.4384,1393.3233,544.4384" style="stroke:#181818;stroke-width:1.0;"/></g><!--link 7 to 6--><g id="link_7_6"><path d="M1400.8233,244.5084 C1400.8233,260.9984 1400.8233,279.4884 1400.8233,298.1684 " fill="none" id="7-to-6" style="stroke:#181818;stroke-width:1.0;"/><polygon fill="#181818" points="1400.8233,304.1684,1404.8233,295.1684,1400.8233,299.1684,1396.8233,295.1684,1400.8233,304.1684" style="stroke:#181818;stroke-width:1.0;"/></g><!--link 8 to 7--><g id="link_8_7"><path d="M1400.8233,148.5884 C1400.8233,165.6384 1400.8233,184.7784 1400.8233,201.8084 " fill="none" id="8-to-7" style="stroke:#181818;stroke-width:1.0;"/><polygon fill="#181818" points="1400.8233,207.8084,1404.8233,198.8084,1400.8233,202.8084,1396.8233,198.8084,1400.8233,207.8084" style="stroke:#181818;stroke-width:1.0;"/></g><!--link _2 to _2--><!--link _2 to _2--><g id="link__2__2"><path d="M568.3233,589.7684 C568.3233,621.9584 568.3233,687.7684 568.3233,720.0184 " fill="none" id="_2-_2" style="stroke:#000000;stroke-width:1.0;"/><text fill="#000000" font-family="sans-serif" font-size="14" font-weight="bold" lengthAdjust="spacing" textLength="27" x="535.3233" y="650.8835">Mw</text></g><!--link _2 to _2--><!--link _2 to _2--><g id="link__2__2"><path d="M573.6533,757.1684 C573.6533,781.2984 573.6533,823.2784 573.6533,847.4184 " fill="none" id="_2-_2-1" style="stroke:#000000;stroke-width:1.0;"/><text fill="#000000" font-family="sans-serif" font-size="14" font-weight="bold" lengthAdjust="spacing" textLength="27" x="540.6533" y="798.2935">Mw</text></g><!--link _3 to _4--><!--link _1 to _2--><!--link _2 to _3--><g id="link__2__3"><path d="M591.4533,562.3984 C620.3833,562.3984 661.1333,562.3984 690.9133,562.3984 " fill="none" id="_2-_3" style="stroke:#000000;stroke-width:1.0;"/><text fill="#000000" font-family="sans-serif" font-size="14" font-weight="bold" lengthAdjust="spacing" textLength="22" x="618.1833" y="558.3935">Ma</text></g><!--link _1 to _2--><g id="link__1__2"><path d="M422.6033,732.3984 C445.3433,732.3984 471.5733,732.3984 471.5733,732.3984 C471.5733,732.3984 471.5733,565.3984 471.5733,565.3984 C471.5733,565.3984 497.1333,565.3984 520.0933,565.3984 " fill="none" id="_1-_2" style="stroke:#000000;stroke-width:1.0;"/><text fill="#000000" font-family="sans-serif" font-size="14" font-weight="bold" lengthAdjust="spacing" textLength="23" x="442.5733" y="645.1135">Mg</text></g><!--link _2 to _3--><g id="link__2__3"><path d="M591.7133,580.3984 C616.6133,580.3984 645.3233,580.3984 645.3233,580.3984 C645.3233,580.3984 645.3233,732.3984 645.3233,732.3984 C645.3233,732.3984 675.9933,732.3984 699.2333,732.3984 " fill="none" id="_2-_3-1" style="stroke:#000000;stroke-width:1.0;"/><text fill="#000000" font-family="sans-serif" font-size="14" font-weight="bold" lengthAdjust="spacing" textLength="20" x="619.3233" y="652.5435">Cx</text></g><!--link _3 to _2--><g id="link__3__2"><path d="M690.9233,571.3984 C651.1933,571.3984 595.3233,571.3984 595.3233,571.3984 C595.3233,571.3984 595.3233,676.5684 595.3233,720.1184 " fill="none" id="_3-_2" style="stroke:#000000;stroke-width:1.0;"/><text fill="#000000" font-family="sans-serif" font-size="14" font-weight="bold" lengthAdjust="spacing" textLength="25" x="569.3233" y="611.9535">ISC</text></g><!--link _3 to _3--><g id="link__3__3"><path d="M724.8233,589.7684 C724.8233,621.9584 724.8233,687.7684 724.8233,720.0184 " fill="none" id="_3-_3" style="stroke:#000000;stroke-width:1.0;"/><text fill="#000000" font-family="sans-serif" font-size="14" font-weight="bold" lengthAdjust="spacing" textLength="20" x="703.8233" y="650.8835">Sh</text></g><!--link _1 to _2--><g id="link__1__2"><path d="M422.7933,744.3984 C451.1333,744.3984 492.0433,744.3984 521.9633,744.3984 " fill="none" id="_1-_2-1" style="stroke:#000000;stroke-width:1.0;"/><text fill="#000000" font-family="sans-serif" font-size="14" font-weight="bold" lengthAdjust="spacing" textLength="23" x="443.3833" y="740.3935">Mg</text></g><!--link _2 to _3--><g id="link__2__3"><path d="M599.6933,744.3984 C630.3833,744.3984 672.3333,744.3984 699.0133,744.3984 " fill="none" id="_2-_3-2" style="stroke:#000000;stroke-width:1.0;"/><text fill="#000000" font-family="sans-serif" font-size="14" font-weight="bold" lengthAdjust="spacing" textLength="20" x="618.3533" y="740.3935">Cx</text></g><!--link _1 to _2--><g id="link__1__2"><path d="M423.2433,866.3984 C450.9533,866.3984 492.0033,866.3984 522.0533,866.3984 " fill="none" id="_1-_2-2" style="stroke:#000000;stroke-width:1.0;"/><text fill="#000000" font-family="sans-serif" font-size="14" font-weight="bold" lengthAdjust="spacing" textLength="19" x="437.6533" y="862.3935">Rx</text></g><!--link _2 to _3--><g id="link__2__3"><path d="M599.7233,866.3984 C631.3433,866.3984 674.6933,866.3984 699.7333,866.3984 " fill="none" id="_2-_3-3" style="stroke:#000000;stroke-width:1.0;"/><text fill="#000000" font-family="sans-serif" font-size="14" font-weight="bold" lengthAdjust="spacing" textLength="26" x="617.7233" y="862.3935">Gm</text></g><!--SRC=[hLNHRjfA47tVhnYv3qqV2B5Dcgf2aGWD958JeJZfGviARV06jfXTQxsKa8fFkBzqd-xzhuxNDjX0cwK56RJCdZapSsQycp0D2OkfebegE2HQng0bF4YjvGH2hjX0Sod8Y8SC4iqKateUCvACkKYz9X1nmL8JIAL7aX3DTSJ0-Ko_iL3m__uPIxYy2k0RUnug2LCuxi94iV__vGuXpKJF8tPAqYXK3D7l1m6ua8e_Iw5fr8huK4oOq3307wPmyumEnaWq5M5RHfZoRCGrG_iXPXWoOGWsKLfHaM2-o6BsEqY_RMUnOke_8YQdsmf7U-4na8hz8lAhS_Cfa7oI_08ewFVvMh2YjimMf5fXPwBGa2r8ivxBL-f6LSapgKAcChA720DMRSrcLkhfQKM61I63I4v3SD9UoGSU2PhrZ3f04t3CRjzrJ8nLHEV8MJ5MTv3exXmEFidh6z0iOgZj6yFbLd73wpDZzgfcZ5NADTFlXUtryAP51yVTzfjxqRhgr0FytlKw9fflF1RhjEKHpiRNWMOp9S8ewFQSxG_6ifzFTn5wrOzh6RA0nU0U7MscbKfO96x6BUDjB7aiglmDfK6LO8ljBfUrTj3kf6uud5a6JjzpAX7CgB_0qmhgjwrWZSUtubbihTUpgFUgkv6wcSkNqmtsLFP5iC-QVOkQU-sRFwovjwUQxyxtM79ZUya5U07BjtDHEfewV9niFPQyZMFfRq-FLhTJFxlktej7_iH2e8C1In8OKircT6v27vTIhBZcMSQA9teQuqfJF4xelJXu-X1yh7TkRo-oS_1jrQ_TEwzVo0a3l23mtZEGaoeakEmLHsaza8yw7ad13F1TAbC9kLpssIJMysgrIqdxBjI-P1jV5H-ETEqKrZp9qGeIofb0X4lGBLzxn5kkVU93hQ1fa0Oqyt-erJ7-cSOrhFbjlZeX9_dg7NbTgzLUbswqj24jfUJiTeH7hKYbTmjJzMOpfjNjkM4E-3C3jr4nhUxKbGw7-6oSxOUDrDptDXHuoSd3XzY0TcRsRPZzdMaRUGiirDWoCZOQMWgT3um5s7-FDm5rB7dndR6WnPQuAUqGR7cDlbRpaFBEh7ajTV0o7TfFTiJ-ZWbV1kszywRv1YE7sBmVxYv2UBQTy_vCOMjcEodyqamG2x2z5Zapt63E5adxkyZXPt9q9-3y1000]--></g></svg>