<?xml version="1.0" encoding="us-ascii" standalone="no"?><svg xmlns="http://www.w3.org/2000/svg" xmlns:xlink="http://www.w3.org/1999/xlink" contentStyleType="text/css" height="618px" preserveAspectRatio="none" style="width:977px;height:618px;background:#FFFFFF;" version="1.1" viewBox="0 0 977 618" width="977px" zoomAndPan="magnify"><defs/><g><text fill="#000000" font-family="sans-serif" font-size="14" font-weight="bold" lengthAdjust="spacing" textLength="294" x="334.9102" y="22.9951">Zajedni&#269;ko IMS jezgro u fiksnoj mre&#382;i</text><!--cluster cloud_1--><g id="cluster_cloud_1"><path d="M40.9668,67.5697 C52.7717,51.1693 65.9637,50.5578 77.9437,67.3747 C92.9393,45.4357 107.2921,48.1865 122.9466,66.6405 C133.6631,43.8156 152.3515,47.1474 164.1145,65.5967 C173.2343,50.3181 190.6022,45.4123 200.2661,65.0332 C215.3759,43.2969 230.5202,49.5583 242.6185,68.1925 C258.7806,50.0484 274.8833,53.4869 285.8969,73.9622 C287.1935,74.3469 287.0764,75.4251 286.2791,76.172 C306.6599,87.5626 306.9419,99.5254 288.4001,113.1486 C304.7372,124.6103 308.5356,137.1279 290.2697,150.3296 C303.8125,159.1349 304.2742,170.8387 291.4139,180.6407 C311.1274,195.6942 309.6371,209.8059 287.5795,220.8789 C304.4448,228.4792 302.4841,240.437 291.1067,251.3108 C307.0152,259.9304 311.029,276.2377 293.0455,286.7134 C312.0108,299.6335 309.3075,315.2127 290.3747,325.5248 C307.4578,334.1636 305.4522,350.8181 290.4847,359.5605 C310.266,371.4982 307.7405,382.7162 291.6649,395.8209 C306.9781,405.5089 303.5568,418.2087 290.1554,426.483 C308.581,437.2397 310.2086,455.0134 291.4004,466.9165 C304.6715,477.7365 306.3601,488.6999 291.6719,499.7511 C308.7222,511.5925 311.2707,524.9466 291.2997,536.4121 C308.03,554.1259 303.1673,569.8422 278.8969,574.0422 C279.8099,572.6304 281.1333,572.874 281.6595,574.4053 C272.9607,593.4293 256.9812,598.0899 242.1313,581.1699 C230.166,602.908 214.6385,600.7528 199.9814,584.1275 C190.0616,603.6659 177.2949,603.2334 162.2275,590.0704 C149.0315,603.9061 130.5341,605.4401 123.269,583.5949 C109.4836,605.9876 87.9407,599.3459 77.9462,579.5247 C56.2903,598.1286 39.2673,595.729 29.8969,567.0422 C32.4427,566.4247 34.0209,567.5871 33.8188,570.2889 C17.8149,561.3085 20.2416,546.8647 33.6054,537.692 C16.1407,531.1659 12.2186,513.7946 27.7415,501.8688 C10.3872,491.4553 14.0737,473.2176 30.0021,464.8358 C13.7393,457.6207 6,440.9952 24.2636,428.3499 C9.5153,417.804 10.1853,405.8501 26.1543,397.1666 C11.7269,385.3382 12.0876,372.6095 26.7826,361.2911 C8.0353,353.5478 7.066,337.0345 22.8529,325.4995 C8.3598,311.8533 9.1633,301.1491 27.0654,291.5188 C9.6332,278.8453 9.2113,265.2291 26.2256,251.8268 C9.666,241.7757 7.4057,229.6798 24.3421,217.776 C9.2929,204.6091 11.6451,192.9409 30.1314,185.8563 C8.4775,173.8734 10.9643,159.2627 29.1998,146.3394 C12.699,134.8478 11.2699,118.3805 31.9538,109.6825 C11.1292,94.7416 14.8394,76.9412 36.8969,66.9622 C38.4412,65.5058 39.9153,65.7248 40.9668,67.5697 " fill="none" style="stroke:#181818;stroke-width:1.0;"/><text fill="#000000" font-family="sans-serif" font-size="14" font-weight="bold" lengthAdjust="spacing" textLength="142" x="86.8969" y="84.9573">5G mobilna mre&#382;a</text></g><!--cluster _1--><g id="cluster__1"><rect fill="none" height="170.59" rx="2.5" ry="2.5" style="stroke:none;stroke-width:1.0;" width="200" x="53.8969" y="379.4522"/></g><!--cluster _2--><g id="cluster__2"><rect fill="none" height="103.59" rx="2.5" ry="2.5" style="stroke:none;stroke-width:1.0;" width="152" x="77.8969" y="422.4522"/></g><!--cluster cloud_2--><g id="cluster_cloud_2"><path d="M489.6772,75.6497 C498.9196,55.8324 517.0426,55.6224 528.0702,73.8481 C540.2428,57.5195 557.6147,58.1674 565.1952,78.4986 C575.0486,61.1312 589.8105,59.1913 601.4612,76.6257 C612.6331,60.1073 625.2729,56.5358 637.5294,75.524 C650.8433,54.9173 664.4754,51.9805 679.3977,73.942 C685.7955,55.4989 700.2282,53.692 711.1818,69.7443 C722.3642,49.0125 740.0611,51.6163 750.4673,70.5138 C763.381,52.6043 777.3356,54.5207 789.2229,71.649 C800.4726,56.5866 817.2523,59.027 824.2898,76.2273 C836.6173,58.4827 849.6436,55.0352 863.2966,74.8506 C874.6901,59.3225 888.525,61.2716 896.0794,78.6726 C910.0374,58.4932 928.9994,61.376 939.8969,81.9622 C940.8894,81.8932 941.2107,82.3152 940.9141,83.2581 C958.6442,93.3973 962.2076,110.0573 943.24,122.3784 C961.0009,133.1787 957.8809,148.6685 942.4436,158.7417 C957.1114,166.4107 957.3256,176.8826 946.5022,188.0782 C964.1664,197.698 967.1778,213.6191 948.7139,225.3809 C966.2339,237.623 968.9057,250.0578 950.6912,264.1238 C962.5438,272.6532 965.536,286.1528 949.955,294.0064 C970.4707,304.1255 970.8205,316.0353 953.2586,329.6805 C966.8925,344.2707 964,356.4915 947.3461,366.1747 C965.2159,378.5025 963.1603,392.1232 946.2651,403.4426 C965.1484,411.7035 963.0934,425.9913 950.1031,437.8115 C966.676,449.26 967.4046,466.0665 946.9473,474.3135 C963.0296,483.7428 960.6162,494.9631 947.6115,505.0216 C966.5302,517.2469 962.6504,535.578 943.4723,543.7295 C961.3049,559.183 955.3165,577.9131 932.8969,582.3422 C934.4767,582.1516 935.0983,583.1912 934.4314,584.5572 C923.6803,601.4667 912.9435,602.2435 901.2585,585.4772 C892.8093,604.5351 875.9689,605.6713 863.9902,589.1771 C853.4921,606.5887 837.6233,607.6904 827.5511,588.7502 C818.2664,607.5432 800.0647,611.8449 788.283,591.2389 C777.4138,609.3389 758.6955,607.1883 748.2883,590.7046 C740.2699,611.421 722.2638,611.2388 710.503,594.4777 C698.5695,608.7532 685.9173,611.069 675.4888,592.8558 C664.0888,610.9617 648.5544,606.9061 638.3201,591.5606 C626.052,610.19 609.5848,604.3033 601.2014,587.492 C592.2016,604.4484 574.9022,605.2335 565.9968,587.3965 C552.3358,603.392 540.3631,603.1517 530.8467,583.3292 C515.0843,601.433 489.3229,603.1196 480.8969,575.3422 C483.312,572.82 485.5248,572.5471 487.097,576.19 C471.9909,565.0893 470.8536,552.1686 486.7571,540.7703 C471.0325,532.2963 472.2465,521.9616 483.2245,510.3833 C464.0601,497.2264 466.7459,485.3504 484.1308,473.0815 C465.6669,465.3844 463.1399,452.9159 478.5236,439.5575 C461.395,426.3314 464.3505,412.6844 480.3521,401.0307 C462.32,390.7199 463.921,379.3112 478.1132,366.8874 C465.1961,354.778 464.3577,341.8657 482.2403,333.5718 C462.4305,324.533 461.5077,307.939 480.8229,297.3684 C463.2012,290.1161 465.9784,273.768 478.7292,264.5764 C463.3174,252.733 465.6788,235.2527 482.5855,226.6996 C464.5045,214.7331 467.4756,203.3701 482.1759,191.0272 C464.7929,179.7912 468.0853,164.6674 483.8621,154.9827 C468.6512,146.3982 468.2537,132.9641 482.1835,122.8569 C458.3294,107.0171 460.196,84.652 487.8969,74.9622 C488.6992,74.2697 489.5596,74.569 489.6772,75.6497 " fill="none" style="stroke:#181818;stroke-width:1.0;"/><text fill="#000000" font-family="sans-serif" font-size="14" font-weight="bold" lengthAdjust="spacing" textLength="104" x="658.3969" y="92.9573">Fiksna mre&#382;a</text></g><!--cluster _4--><g id="cluster__4"><rect fill="none" height="203.19" rx="2.5" ry="2.5" style="stroke:none;stroke-width:1.0;" width="427" x="496.8969" y="363.1522"/></g><!--cluster Zajedni?ko jezgro--><g id="cluster_Zajedni&#269;ko jezgro"><rect fill="#EEEEEE" height="136.19" rx="2.5" ry="2.5" style="stroke:#000000;stroke-width:1.0;" width="157" x="520.8969" y="406.1522"/><text fill="#000000" font-family="sans-serif" font-size="14" font-weight="bold" lengthAdjust="spacing" textLength="141" x="528.8969" y="421.1473">Zajedni&#269;ko jezgro</text></g><!--cluster _5--><g id="cluster__5"><rect fill="none" height="103.59" rx="2.5" ry="2.5" style="stroke:none;stroke-width:1.0;" width="198" x="701.8969" y="422.4522"/></g><!--entity 0--><g id="elem_0"><rect fill="none" height="36.2969" rx="2.5" ry="2.5" style="stroke:none;stroke-width:0.5;" width="29" x="139.3969" y="101.9622"/></g><!--entity 1--><g id="elem_1"><rect fill="#FFFFFF" height="36.2969" rx="2.5" ry="2.5" style="stroke:#000000;stroke-width:0.5;" width="167" x="70.3969" y="198.2622"/><text fill="#000000" font-family="sans-serif" font-size="14" lengthAdjust="spacing" textLength="147" x="80.3969" y="221.2573">5G UE (VoNR telefon)</text></g><!--entity 2--><g id="elem_2"><rect fill="#FFFFFF" height="36.2969" rx="2.5" ry="2.5" style="stroke:#000000;stroke-width:0.5;" width="49" x="129.3969" y="302.7122"/><text fill="#000000" font-family="sans-serif" font-size="14" lengthAdjust="spacing" textLength="29" x="139.3969" y="325.7073">gNB</text></g><!--entity 3--><g id="elem_3"><rect fill="#FFFFFF" height="52.5938" rx="2.5" ry="2.5" style="stroke:#000000;stroke-width:0.5;" width="119" x="94.3969" y="457.4522"/><text fill="#000000" font-family="sans-serif" font-size="14" lengthAdjust="spacing" textLength="99" x="104.3969" y="480.4473">5G core (5GC)</text><text fill="#000000" font-family="sans-serif" font-size="14" lengthAdjust="spacing" textLength="95" x="106.3969" y="496.7442">AMF/SMF/UPF</text></g><!--entity 6--><g id="elem_6"><rect fill="#FFFFFF" height="52.5938" rx="2.5" ry="2.5" style="stroke:#000000;stroke-width:0.5;" width="174" x="713.8969" y="294.5622"/><text fill="#000000" font-family="sans-serif" font-size="14" lengthAdjust="spacing" textLength="154" x="723.8969" y="317.5573">Fiksna pristupna ta&#269;ka</text><text fill="#000000" font-family="sans-serif" font-size="14" lengthAdjust="spacing" textLength="85" x="758.3969" y="333.8542">(xDSL/FTTH)</text></g><!--entity 7--><g id="elem_7"><rect fill="#FFFFFF" height="36.2969" rx="2.5" ry="2.5" style="stroke:#000000;stroke-width:0.5;" width="140" x="730.8969" y="198.2622"/><text fill="#000000" font-family="sans-serif" font-size="14" lengthAdjust="spacing" textLength="120" x="740.8969" y="221.2573">CPE/Home router</text></g><!--entity 8--><g id="elem_8"><rect fill="#FFFFFF" height="36.2969" rx="2.5" ry="2.5" style="stroke:#000000;stroke-width:0.5;" width="170" x="715.8969" y="101.9622"/><text fill="#000000" font-family="sans-serif" font-size="14" lengthAdjust="spacing" textLength="150" x="725.8969" y="124.9573">SIP telefon/Softphone</text></g><!--entity 4--><g id="elem_4"><rect fill="#FFFFFF" height="85.1875" rx="2.5" ry="2.5" style="stroke:#000000;stroke-width:0.5;" width="124" x="536.8969" y="441.1522"/><text fill="#000000" font-family="sans-serif" font-size="14" lengthAdjust="spacing" textLength="71" x="563.3969" y="464.1473">IMS jezgro</text><text fill="#000000" font-family="sans-serif" font-size="14" lengthAdjust="spacing" textLength="104" x="546.8969" y="480.4442">P-CSCF, I-CSCF</text><text fill="#000000" font-family="sans-serif" font-size="14" lengthAdjust="spacing" textLength="77" x="560.3969" y="496.7411">S-CSCF, AS</text><text fill="#000000" font-family="sans-serif" font-size="14" lengthAdjust="spacing" textLength="66" x="565.8969" y="513.0379">HSS/UDM</text></g><!--entity 5--><g id="elem_5"><rect fill="#FFFFFF" height="52.5938" rx="2.5" ry="2.5" style="stroke:#000000;stroke-width:0.5;" width="166" x="717.8969" y="457.4522"/><text fill="#000000" font-family="sans-serif" font-size="14" lengthAdjust="spacing" textLength="64" x="768.8969" y="480.4473">AGF/BNG</text><text fill="#000000" font-family="sans-serif" font-size="14" lengthAdjust="spacing" textLength="146" x="727.8969" y="496.7442">fixed access gateway</text></g><!--entity rectangle_empty--><g id="elem_rectangle_empty"><rect fill="none" height="36.2969" rx="2.5" ry="2.5" style="stroke:none;stroke-width:0.5;" width="135" x="321.3969" y="101.9622"/></g><!--link cloud_1 to rectangle_empty--><!--link 0 to 1--><!--link 1 to 2--><g id="link_1_2"><path d="M153.8969,234.6022 C153.8969,253.6622 153.8969,277.4122 153.8969,296.5222 " fill="none" id="1-to-2" style="stroke:#181818;stroke-width:1.0;"/><polygon fill="#181818" points="153.8969,302.5222,157.8969,293.5222,153.8969,297.5222,149.8969,293.5222,153.8969,302.5222" style="stroke:#181818;stroke-width:1.0;"/></g><!--link 2 to 3--><g id="link_2_3"><path d="M153.8969,339.2222 C153.8969,368.0122 153.8969,417.8922 153.8969,451.1022 " fill="none" id="2-to-3" style="stroke:#181818;stroke-width:1.0;"/><polygon fill="#181818" points="153.8969,457.1022,157.8969,448.1022,153.8969,452.1022,149.8969,448.1022,153.8969,457.1022" style="stroke:#181818;stroke-width:1.0;"/></g><!--link 3 to 4--><g id="link_3_4"><path d="M213.4469,483.3422 C297.6469,483.3422 444.7469,483.3422 530.4769,483.3422 " fill="none" id="3-to-4" style="stroke:#181818;stroke-width:1.0;"/><polygon fill="#181818" points="536.4769,483.3422,527.4769,479.3422,531.4769,483.3422,527.4769,487.3422,536.4769,483.3422" style="stroke:#181818;stroke-width:1.0;"/></g><!--reverse link 4 to 5--><g id="link_4_5"><path d="M667.1469,483.3422 C685.0069,483.3422 698.7569,483.3422 717.6569,483.3422 " fill="none" id="4-backto-5" style="stroke:#181818;stroke-width:1.0;"/><polygon fill="#181818" points="661.1469,483.3422,670.1469,487.3422,666.1469,483.3422,670.1469,479.3422,661.1469,483.3422" style="stroke:#181818;stroke-width:1.0;"/></g><!--link 6 to 5--><g id="link_6_5"><path d="M800.8969,347.3922 C800.8969,377.5922 800.8969,420.6522 800.8969,450.9522 " fill="none" id="6-to-5" style="stroke:#181818;stroke-width:1.0;"/><polygon fill="#181818" points="800.8969,456.9522,804.8969,447.9522,800.8969,451.9522,796.8969,447.9522,800.8969,456.9522" style="stroke:#181818;stroke-width:1.0;"/></g><!--link 7 to 6--><g id="link_7_6"><path d="M800.8969,234.6022 C800.8969,251.0822 800.8969,269.5822 800.8969,288.2522 " fill="none" id="7-to-6" style="stroke:#181818;stroke-width:1.0;"/><polygon fill="#181818" points="800.8969,294.2522,804.8969,285.2522,800.8969,289.2522,796.8969,285.2522,800.8969,294.2522" style="stroke:#181818;stroke-width:1.0;"/></g><!--link 8 to 7--><g id="link_8_7"><path d="M800.8969,138.6822 C800.8969,155.7322 800.8969,174.8722 800.8969,191.9022 " fill="none" id="8-to-7" style="stroke:#181818;stroke-width:1.0;"/><polygon fill="#181818" points="800.8969,197.9022,804.8969,188.9022,800.8969,192.9022,796.8969,188.9022,800.8969,197.9022" style="stroke:#181818;stroke-width:1.0;"/></g><!--SRC=[XLFRRjf047tVhnYvBqGgTRY5F20a834WDGZLIHzQAhJO0somTwpreeHKV49_gK_jVtLP6s8dQMl9zkoUcRDdpjYQ4j042zAQOWY5ma0BacmjGeHEnxn2bDqkf1eLajubU8G2KbW6M2VLkmYxx432vIf2-Cu0HgJ44qdDeruaLZ96gI4m3rG6xFDWirAqbU608bBmi1OQpVw7x6HBy3fBAoxJX2l3Od7FqB-5x0zC1w5_uNbtRI-RkMSTDzVFqesGXeJ7K6wbJof4bTKk8aDMtYluLTInBn96GkB1BI2bryIO5jgGEr_uFOPI_Fgn8HZV-72FJqOeR64fDgcaUuWL_luf7CQ2YBOXEAqXnBGGaUGPn1tWAJWMdTSSA_TPl7Fk5APPXWpJtJLKFjFa4sYCS4dop9BLodchITzkrylRvh12tvdFHRZ-6dvvl9rGfJKSdCraxyPpVNFVJJrxMiDMxFCH7Rlt3gwyrNdzLUVpvZ_r5OtFJ7TEt_ORQfzdCvFJwi0VUEzXRDypwUVhdZ-J8zztxwvkhBGcd7eeAslznvhUq7Fxa-5CBiKZXi230DCKLbpZ0zzPwbR1dL9fRb2YHAgtYOaqDotocQmyNlaVNU_sTfGD-Q9SDvXUkoEA4SnVOlvGcz8kf_ZZwV4xSNrQwcHD4ctYvM52XSnJECSuqRjojwTfpcjG_Pe1tvHOhNMr2oygsVbpIaWFqcJKc2dBupghd-86Qq3rIDDaJUZaA-DLooosITNqV957RTREeyi_]--></g></svg>