<?xml version="1.0" encoding="us-ascii" standalone="no"?><svg xmlns="http://www.w3.org/2000/svg" xmlns:xlink="http://www.w3.org/1999/xlink" contentStyleType="text/css" height="621px" preserveAspectRatio="none" style="width:969px;height:621px;background:#FFFFFF;" version="1.1" viewBox="0 0 969 621" width="969px" zoomAndPan="magnify"><defs/><g><text fill="#000000" font-family="sans-serif" font-size="14" font-weight="bold" lengthAdjust="spacing" textLength="264" x="345.8731" y="22.9951">Zajedni&#269;ko IMS jezgro u 5G mre&#382;i</text><!--cluster cloud_1--><g id="cluster_cloud_1"><path d="M34.8618,65.37 C45.9878,49.0308 58.6015,47.2789 71.0436,63.9264 C83.6408,45.994 97.7044,47.2771 109.7119,64.5737 C118.0067,48.1605 132.9727,49.3428 140.7884,65.0374 C149.7302,48.2167 165.6924,50.7598 174.5381,65.1414 C187.282,43.2969 200.9867,48.3484 214.1187,64.7395 C224.5516,48.1927 238.5386,50.4519 247.1163,66.6111 C256.1859,50.1763 268.922,45.1645 282.1679,62.2432 C295.1735,44.9321 307.2067,47.6771 318.3817,64.2023 C327.7137,49.9022 344.2457,46.6037 352.3971,65.4151 C363.7346,48.5062 376.3813,48.2576 387.0752,66.0582 C397.6037,48.1686 411.1981,49.2615 424.0102,63.4269 C439.5698,45.0151 453.9312,51.1503 462.7581,70.3611 C466.1781,69.3912 467.8861,71.8402 467.2974,74.8891 C485.8817,85.3151 483.8344,101.8778 466.466,111.4871 C481.8573,120.6187 486.1578,135.5885 467.6919,145.9253 C484.71,153.2824 489.7648,168.6284 473.4537,181.399 C490.7833,194.2609 490.0894,207.2954 470.6358,217.2677 C486.8151,224.4993 489.6157,242.8393 475.696,254.1953 C492.454,266.8958 495.0952,284.476 472.8314,294.3959 C488.3217,304.1364 492.4675,316.6825 476.1226,329.4149 C493.2667,340.8579 490.7673,357.3548 473.495,366.3493 C491.8817,378.735 491.1335,391.7675 473.6581,404.3074 C490,416.3929 487.9735,429.2866 470.0776,437.701 C484.6578,450.7064 484.9393,462.3498 467.4667,472.9833 C485.5143,483.0236 489.128,499.3557 470.1136,511.9158 C489.3444,524.311 489.2914,535.9037 469.4977,547.6258 C482.0259,563.8438 480.6069,583.6521 455.7581,586.7411 C457.4608,585.795 458.5284,586.3801 459.0036,588.1878 C451.948,607.7622 435.1471,608.0356 424.4882,591.6459 C416.2479,606.3421 400.8613,609.0992 391.0796,593.3365 C378.7761,608.2956 365.9162,612.5491 354.0489,592.8703 C343.9158,611.8594 327.7324,609.9656 315.8554,594.8215 C304.9406,612.0882 291.6873,613.6476 280.3655,595.2263 C270.7166,610.4377 256.425,607.4932 247.8005,594.0615 C237.9266,612.5496 225.1141,609.8997 213.1499,596.3203 C201.1704,610.8859 183.3374,614.5735 174.651,592.8287 C163.0971,609.305 150.5192,608.5787 140.0867,591.6678 C133.3669,607.3243 118.6449,608.3331 109.7635,593.8419 C97.2449,609.9347 80.7425,609.8623 70.778,590.9939 C51.0439,610.3822 34.1796,605.6114 25.7581,579.7411 C28.821,579.2982 30.0541,581.0585 29.4601,583.8836 C12.882,573.2061 11.5972,559.4513 26.4638,546.2689 C10.4399,536.2921 13.094,521.3713 28.0616,512.8774 C9.3671,499.9904 10.6961,482.309 30.1314,471.3213 C12.6286,463.0204 11.62,450.025 27.1497,438.7044 C11.4256,428.4474 11.962,409.1276 28.1408,399.6809 C11.5984,390.5913 11.3217,374.3581 25.8842,363.3371 C7.527,353.2479 8.9867,334.9319 26.9411,325.867 C12.4103,314.9614 14.9936,301.8369 29.052,292.7539 C7.6699,283.2079 7.3484,266.1456 25.1214,252.7522 C9.8878,240.6933 12.7857,226.6463 28.4404,217.4951 C12.466,207.1447 13.9311,193.39 28.3938,182.9986 C8.7815,172.5581 6,158.3639 25.0664,144.5741 C9.0616,133.3296 13.0436,115.181 29.1499,107.4705 C11.5568,94.1433 11.233,73.4883 32.7581,63.3611 C34.2836,62.9384 35.3391,63.6955 34.8618,65.37 " fill="none" style="stroke:#181818;stroke-width:1.0;"/><text fill="#000000" font-family="sans-serif" font-size="14" font-weight="bold" lengthAdjust="spacing" textLength="142" x="173.2581" y="81.3562">5G mobilna mre&#382;a</text></g><!--cluster _1--><g id="cluster__1"><rect fill="none" height="203.19" rx="2.5" ry="2.5" style="stroke:none;stroke-width:1.0;" width="381" x="49.7581" y="359.5511"/></g><!--cluster _2--><g id="cluster__2"><rect fill="none" height="103.59" rx="2.5" ry="2.5" style="stroke:none;stroke-width:1.0;" width="152" x="73.7581" y="418.8511"/></g><!--cluster Zajedni?ko jezgro--><g id="cluster_Zajedni&#269;ko jezgro"><rect fill="#EEEEEE" height="136.19" rx="2.5" ry="2.5" style="stroke:#000000;stroke-width:1.0;" width="157" x="249.7581" y="402.5511"/><text fill="#000000" font-family="sans-serif" font-size="14" font-weight="bold" lengthAdjust="spacing" textLength="141" x="257.7581" y="417.5462">Zajedni&#269;ko jezgro</text></g><!--cluster cloud_2--><g id="cluster_cloud_2"><path d="M667.8115,73.3246 C678.7523,58.4225 688.4647,61.0139 698.7978,73.9999 C706.3429,57.1613 722.3514,55.0069 732.3939,71.4813 C741.2634,53.4636 753.6115,52.8709 764.3925,69.7274 C772.1298,47.6958 786.0814,50.5396 800.453,62.7384 C812.0358,46.9351 823.1419,51.0097 832.5782,65.049 C844.52,49.2299 857.7041,47.1748 867.6538,67.0088 C880.8974,51.2745 892.1808,50.7315 901.9568,70.3714 C915.0777,55.2612 930.7998,58.9381 935.7581,78.3611 C939.3361,77.1497 940.8985,78.9887 940.2838,82.435 C955.0499,93.3881 955.2321,110.0508 937.4159,118.4061 C954.5542,124.2894 954.5305,139.3041 941.8916,149.4769 C959.9158,159.0906 956.6467,174.0065 941.1355,182.8606 C956.7318,193.556 956.6329,206.0307 941.646,217.1811 C955.2389,227.0085 955.6697,241.5889 939.2952,249.2173 C961.1363,258.5007 962.1204,276.4318 941.8274,288.4357 C954.1368,297.4085 955.1185,307.9444 942.8343,317.7616 C960.2325,329.7859 955.5154,342.263 940.1805,351.7299 C955.5128,361.3115 953.4539,376.6401 939.3804,385.5256 C957.6746,396.1951 962.7463,409.7495 943.911,424.7117 C958.8456,435.265 955.5838,447.1671 940.9319,454.7901 C956.988,463.0233 960.581,480.0206 942.8129,490.0578 C958.0992,502.5845 956.0672,514.7454 937.8133,522.0267 C955.5809,540.6834 950.565,552.6515 928.7581,562.4411 C930.225,562.3054 930.9112,563.0195 930.4676,564.4831 C924.2625,580.9709 911.9149,581.3347 901.5303,568.6254 C888.7382,582.9766 872.8088,585.6745 863.5511,564.8134 C853.1882,581.615 843.0958,581.5065 830.7925,566.8329 C824.3914,583.0238 810.1837,584.4819 800.9679,569.5284 C788.8823,585.4466 777.4635,585.8401 764.0497,571.1293 C755.2985,582.6167 743.0004,584.45 736.5861,568.7672 C724.2809,585.8471 710.2551,583.8998 699.5067,567.0651 C680.4618,582.0611 665.7303,580.2136 657.7581,555.4411 C660.382,552.5427 662.6043,553.258 663.8831,556.7337 C647.2611,551.6844 647.4199,537.141 658.2097,526.882 C637.2396,515.9141 639.5358,502.9788 655.0428,488.9642 C636.8841,479.0903 636.9386,467.2091 654.1241,456.3398 C637.9582,444.2352 642.2551,434.2147 655.9589,423.794 C639.0266,415.2416 635.5219,397.9674 651.8211,385.7962 C635.5649,378.4731 635.2566,362.6972 649.0775,352.868 C635.5427,343.2926 634.3906,330.9243 649.8551,322.0814 C631.946,311.3762 631.263,293.6287 650.2741,283.3226 C633.1645,273.6375 637.3258,257.9894 652.239,250.2042 C636.5259,240.8294 637.5981,226.4658 654.0767,218.9861 C638.3452,208.3448 639.6657,193.7278 654.5702,183.5127 C636.7289,173.5767 639.3816,155.9724 656.5364,147.9725 C641.922,135.6721 644.7153,123.044 661.6567,115.7596 C642.1967,99.4976 645.4879,84.9176 664.7581,71.3611 C666.7615,70.3116 667.9301,71.0742 667.8115,73.3246 " fill="none" style="stroke:#181818;stroke-width:1.0;"/><text fill="#000000" font-family="sans-serif" font-size="14" font-weight="bold" lengthAdjust="spacing" textLength="104" x="744.7581" y="89.3562">Fiksna mre&#382;a</text></g><!--cluster _4--><g id="cluster__4"><rect fill="none" height="170.59" rx="2.5" ry="2.5" style="stroke:none;stroke-width:1.0;" width="246" x="673.7581" y="375.8511"/></g><!--cluster _5--><g id="cluster__5"><rect fill="none" height="103.59" rx="2.5" ry="2.5" style="stroke:none;stroke-width:1.0;" width="198" x="697.7581" y="418.8511"/></g><!--entity 0--><g id="elem_0"><rect fill="none" height="36.2969" rx="2.5" ry="2.5" style="stroke:none;stroke-width:0.5;" width="29" x="135.2581" y="98.3611"/></g><!--entity 1--><g id="elem_1"><rect fill="#FFFFFF" height="36.2969" rx="2.5" ry="2.5" style="stroke:#000000;stroke-width:0.5;" width="167" x="66.2581" y="194.6611"/><text fill="#000000" font-family="sans-serif" font-size="14" lengthAdjust="spacing" textLength="147" x="76.2581" y="217.6562">5G UE (VoNR telefon)</text></g><!--entity 2--><g id="elem_2"><rect fill="#FFFFFF" height="36.2969" rx="2.5" ry="2.5" style="stroke:#000000;stroke-width:0.5;" width="49" x="125.2581" y="299.1111"/><text fill="#000000" font-family="sans-serif" font-size="14" lengthAdjust="spacing" textLength="29" x="135.2581" y="322.1062">gNB</text></g><!--entity 3--><g id="elem_3"><rect fill="#FFFFFF" height="52.5938" rx="2.5" ry="2.5" style="stroke:#000000;stroke-width:0.5;" width="119" x="90.2581" y="453.8511"/><text fill="#000000" font-family="sans-serif" font-size="14" lengthAdjust="spacing" textLength="99" x="100.2581" y="476.8462">5G core (5GC)</text><text fill="#000000" font-family="sans-serif" font-size="14" lengthAdjust="spacing" textLength="95" x="102.2581" y="493.143">AMF/SMF/UPF</text></g><!--entity 4--><g id="elem_4"><rect fill="#FFFFFF" height="85.1875" rx="2.5" ry="2.5" style="stroke:#000000;stroke-width:0.5;" width="124" x="265.7581" y="437.5511"/><text fill="#000000" font-family="sans-serif" font-size="14" lengthAdjust="spacing" textLength="71" x="292.2581" y="460.5462">IMS jezgro</text><text fill="#000000" font-family="sans-serif" font-size="14" lengthAdjust="spacing" textLength="104" x="275.7581" y="476.843">P-CSCF, I-CSCF</text><text fill="#000000" font-family="sans-serif" font-size="14" lengthAdjust="spacing" textLength="77" x="289.2581" y="493.1399">S-CSCF, AS</text><text fill="#000000" font-family="sans-serif" font-size="14" lengthAdjust="spacing" textLength="66" x="294.7581" y="509.4368">HSS/UDM</text></g><!--entity 6--><g id="elem_6"><rect fill="#FFFFFF" height="52.5938" rx="2.5" ry="2.5" style="stroke:#000000;stroke-width:0.5;" width="174" x="709.7581" y="290.9611"/><text fill="#000000" font-family="sans-serif" font-size="14" lengthAdjust="spacing" textLength="154" x="719.7581" y="313.9562">Fiksna pristupna ta&#269;ka</text><text fill="#000000" font-family="sans-serif" font-size="14" lengthAdjust="spacing" textLength="85" x="754.2581" y="330.253">(xDSL/FTTH)</text></g><!--entity 7--><g id="elem_7"><rect fill="#FFFFFF" height="36.2969" rx="2.5" ry="2.5" style="stroke:#000000;stroke-width:0.5;" width="140" x="726.7581" y="194.6611"/><text fill="#000000" font-family="sans-serif" font-size="14" lengthAdjust="spacing" textLength="120" x="736.7581" y="217.6562">CPE/Home router</text></g><!--entity 8--><g id="elem_8"><rect fill="#FFFFFF" height="36.2969" rx="2.5" ry="2.5" style="stroke:#000000;stroke-width:0.5;" width="170" x="711.7581" y="98.3611"/><text fill="#000000" font-family="sans-serif" font-size="14" lengthAdjust="spacing" textLength="150" x="721.7581" y="121.3562">SIP telefon/Softphone</text></g><!--entity 5--><g id="elem_5"><rect fill="#FFFFFF" height="52.5938" rx="2.5" ry="2.5" style="stroke:#000000;stroke-width:0.5;" width="166" x="713.7581" y="453.8511"/><text fill="#000000" font-family="sans-serif" font-size="14" lengthAdjust="spacing" textLength="64" x="764.7581" y="476.8462">AGF/BNG</text><text fill="#000000" font-family="sans-serif" font-size="14" lengthAdjust="spacing" textLength="146" x="723.7581" y="493.143">fixed access gateway</text></g><!--entity rectangle_empty--><g id="elem_rectangle_empty"><rect fill="none" height="36.2969" rx="2.5" ry="2.5" style="stroke:none;stroke-width:0.5;" width="135" x="498.2581" y="98.3611"/></g><!--link cloud_1 to rectangle_empty--><!--link 0 to 1--><!--link 1 to 2--><g id="link_1_2"><path d="M149.7581,231.0011 C149.7581,250.0611 149.7581,273.8111 149.7581,292.9211 " fill="none" id="1-to-2" style="stroke:#181818;stroke-width:1.0;"/><polygon fill="#181818" points="149.7581,298.9211,153.7581,289.9211,149.7581,293.9211,145.7581,289.9211,149.7581,298.9211" style="stroke:#181818;stroke-width:1.0;"/></g><!--link 2 to 3--><g id="link_2_3"><path d="M149.7581,335.6211 C149.7581,364.4111 149.7581,414.2911 149.7581,447.5011 " fill="none" id="2-to-3" style="stroke:#181818;stroke-width:1.0;"/><polygon fill="#181818" points="149.7581,453.5011,153.7581,444.5011,149.7581,448.5011,145.7581,444.5011,149.7581,453.5011" style="stroke:#181818;stroke-width:1.0;"/></g><!--link 3 to 4--><g id="link_3_4"><path d="M209.5281,479.7411 C227.4981,479.7411 241.2681,479.7411 259.4081,479.7411 " fill="none" id="3-to-4" style="stroke:#181818;stroke-width:1.0;"/><polygon fill="#181818" points="265.4081,479.7411,256.4081,475.7411,260.4081,479.7411,256.4081,483.7411,265.4081,479.7411" style="stroke:#181818;stroke-width:1.0;"/></g><!--reverse link 4 to 5--><g id="link_4_5"><path d="M396.0381,479.7411 C479.2581,479.7411 620.9881,479.7411 713.6381,479.7411 " fill="none" id="4-backto-5" style="stroke:#181818;stroke-width:1.0;"/><polygon fill="#181818" points="390.0381,479.7411,399.0381,483.7411,395.0381,479.7411,399.0381,475.7411,390.0381,479.7411" style="stroke:#181818;stroke-width:1.0;"/></g><!--link 6 to 5--><g id="link_6_5"><path d="M796.7581,343.7911 C796.7581,373.9911 796.7581,417.0511 796.7581,447.3511 " fill="none" id="6-to-5" style="stroke:#181818;stroke-width:1.0;"/><polygon fill="#181818" points="796.7581,453.3511,800.7581,444.3511,796.7581,448.3511,792.7581,444.3511,796.7581,453.3511" style="stroke:#181818;stroke-width:1.0;"/></g><!--link 7 to 6--><g id="link_7_6"><path d="M796.7581,231.0011 C796.7581,247.4811 796.7581,265.9811 796.7581,284.6511 " fill="none" id="7-to-6" style="stroke:#181818;stroke-width:1.0;"/><polygon fill="#181818" points="796.7581,290.6511,800.7581,281.6511,796.7581,285.6511,792.7581,281.6511,796.7581,290.6511" style="stroke:#181818;stroke-width:1.0;"/></g><!--link 8 to 7--><g id="link_8_7"><path d="M796.7581,135.0811 C796.7581,152.1311 796.7581,171.2711 796.7581,188.3011 " fill="none" id="8-to-7" style="stroke:#181818;stroke-width:1.0;"/><polygon fill="#181818" points="796.7581,194.3011,800.7581,185.3011,796.7581,189.3011,792.7581,185.3011,796.7581,194.3011" style="stroke:#181818;stroke-width:1.0;"/></g><!--SRC=[XLFRZjem47ttLupI5rOgpN9RzW4X0Ki0gI3KB7regP191l0IxCWnOjcAJ-WlzQdzhpfEW0HeYnGoddFcpFZOKI849M0kb18Ry9b4Jp71oOhv28s6Vld8cqs854eKQX_Y4VA4n3n06f7Q1zWaiGZbom3XEm7e2ydU15SqQ0LioJV85NZw3wK6szHRBwNOShyZ0Y5Xjs8ATVv3qja8NBEKf3mAgTGg1dUq_2ta42l5W_v5vrtN_0ppG1fsEZ-9renh4Rg1_5RQGleeazfveCNokOnVsJaEMS60SOpT0Y7LIX2YcDBYrXVwWZvdltwi1Go6BhpWcnuKjb3hmKRYxv_C8iGBnDO7Aqw9EGiuJI1g0Ot0CkYiP9b9ptDRzrRc8FEGLffqeV1PZ3w1mW0NWjyPiLAUjnorJRgSJ-jccIqd5cVXyZLysTuSJg7MwznDUMlesAv-9cF7TAkOYiEbRDQgn2RhT1jlD3cxEUNZOiVjEEzXODvJxgRhbZlbVTUr9qz3qxaAfzRnnJWQxx1rTDFqyfNfi-g_hQdznvfMpx7RezwKBzWh-a0z3wC8bbJXZkvDwrfcn5nfEcKeMQIseOuKrLxHAI-yFhaVRUVvkPySyaE-hZFksdsnGT0VYFuu3QMUfxY3yV6UsAvOg70bE1hYOsnJXdaAPxW9rJw_svEbin8KloR0DycMArLimaKbkJzJVB7Zcb4YkYoDowHyYYka0iMZJ9LKeP6kj5SrlTY6HRtdXpIgateQFVu1]--></g></svg>