<?xml version="1.0" encoding="us-ascii" standalone="no"?><svg xmlns="http://www.w3.org/2000/svg" xmlns:xlink="http://www.w3.org/1999/xlink" contentStyleType="text/css" height="624px" preserveAspectRatio="none" style="width:1152px;height:624px;background:#FFFFFF;" version="1.1" viewBox="0 0 1152 624" width="1152px" zoomAndPan="magnify"><defs/><g><text fill="#000000" font-family="sans-serif" font-size="14" font-weight="bold" lengthAdjust="spacing" textLength="327" x="405.7598" y="22.9951">Odvojena IMS jezgra za 5G i fiksnu mre&#382;u</text><!--cluster cloud_1--><g id="cluster_cloud_1"><path d="M39.6024,61.0176 C49.8943,45.4717 65.5527,43.2969 74.61,62.2697 C86.3749,43.582 97.4916,45.7027 110.9825,60.3886 C121.7419,47.8878 133.8046,46.5447 140.9399,64.0115 C152.8362,47.3833 164.6808,48.9471 175.4317,65.2125 C184.9644,46.05 203.2703,46.9312 212.693,65.3215 C222.0675,43.6468 238.4296,44.7248 250.9597,62.2403 C263.0103,48.9101 275.5803,45.8698 285.7151,64.3344 C294.4383,48.3409 304.6469,49.1268 316.2943,61.142 C328.8571,46.7776 343.2932,45.7194 353.5675,63.7732 C363.9808,45.9025 375.1783,45.8003 387.2428,62.1482 C400.4201,44.9727 417.5825,46.4381 426.8991,66.2836 C438.1462,52.0435 453.3413,49.3776 463.0693,67.9579 C466.1965,67.1584 467.8436,69.0645 466.699,72.0521 C484.4324,79.4324 484.5328,95.2379 468.8433,104.8063 C488.0896,116.9488 488.5329,135.5519 467.25,146.1317 C482.4307,152.9131 485.7246,168.0608 472.5368,179.3563 C488.9822,190.8049 492.1992,208.6744 471.3054,218.962 C491.0051,230.9512 489.8268,242.5755 473.2552,256.4512 C488.7348,265.5105 490.5871,283.3618 473.3384,292.4966 C493.275,300.8042 495.6805,314.4894 477.9179,327.701 C489.4605,341.0302 492.044,353.6608 471.7415,361.101 C487.4089,369.599 493.3759,387.1942 474.0317,397.8728 C490.7105,411.2239 491.8487,423.1723 471.9958,434.4925 C489.5807,445.0774 490.1233,463.5903 471.6204,473.8309 C487.007,485.9641 484.7402,502.2528 466.6773,509.7875 C483.3833,518.0209 487.5581,535.2595 470.765,547.1571 C486.0011,567.9918 479.3078,578.7103 456.0693,584.3379 C460.193,583.1076 462.895,584.7627 462.2515,589.3788 C451.0982,609.7045 434.0194,606.8041 423.186,589.0505 C411.6911,605.0418 401.9826,603.3813 391.3112,588.2082 C383.6035,608.5421 365.1797,607.4328 352.934,593.2543 C344.4483,611.2484 331.7432,609.8327 319.6962,597.1077 C308.3562,616.989 292.9343,614.1711 281.9813,596.7169 C274.8836,614.3027 260.6332,612.7842 249.6965,600.9262 C236.4064,617.3044 220.6938,615.1718 210.402,597.4693 C201.1084,613.9804 187.423,611.1504 178.812,596.7712 C166.2463,610.1544 151.646,612.7912 142.8094,592.754 C130.3156,604.2782 120.3741,604.9764 111.1336,589.0059 C98.9214,607.7112 85.7457,605.6581 73.3989,589.15 C55.0508,607.6688 34.6294,601.1318 27.0693,577.3379 C31.3306,576.9857 33.6211,579.8485 31.4375,583.8317 C12.7903,570.6111 10.0406,555.161 30.6781,541.24 C16.1135,533.1031 13.8493,519.3456 29.2742,509.8668 C10.8423,496.4347 8.8361,480.7835 30.5408,468.5828 C13.4258,456.6916 13.7641,444.5511 31.0746,433.1789 C13.0581,426.9626 11.8311,411.9524 26.2832,400.9144 C10.0923,389.0949 12.5834,376.0893 27.2322,365.0867 C10.5241,357.4119 9.6981,338.984 23.6246,328.3045 C6.3392,312.9073 11.0101,301.4401 29.8345,292.2649 C13.7453,281.2939 10.8948,265.7141 29.8946,254.7995 C13.8744,245.3109 11.8848,228.6815 28.3514,217.8366 C6,206.1296 8.6895,190.9126 26.9322,177.7678 C10.462,167.9281 10.0632,157.6012 26.056,146.8418 C10.067,133.5444 12.2297,122.3074 27.7852,110.5115 C9.3684,94.2896 6.0214,71.2874 34.0693,60.9579 C35.8871,58.2824 37.845,58.0949 39.6024,61.0176 " fill="none" style="stroke:#181818;stroke-width:1.0;"/><text fill="#000000" font-family="sans-serif" font-size="14" font-weight="bold" lengthAdjust="spacing" textLength="142" x="174.0693" y="78.953">5G mobilna mre&#382;a</text></g><!--cluster _1--><g id="cluster__1"><rect fill="none" height="203.19" rx="2.5" ry="2.5" style="stroke:none;stroke-width:1.0;" width="380" x="51.0693" y="357.1479"/></g><!--cluster _2--><g id="cluster__2"><rect fill="none" height="103.59" rx="2.5" ry="2.5" style="stroke:none;stroke-width:1.0;" width="152" x="75.0693" y="416.4479"/></g><!--cluster sc_1--><g id="cluster_sc_1"><rect fill="#EEEEEE" height="136.19" rx="2.5" ry="2.5" style="stroke:#000000;stroke-width:1.0;" width="156" x="251.0693" y="400.1479"/><text fill="#000000" font-family="sans-serif" font-size="14" font-weight="bold" lengthAdjust="spacing" textLength="130" x="264.0693" y="415.143">Odvojeno jezgro</text></g><!--cluster cloud_2--><g id="cluster_cloud_2"><path d="M671.6049,68.9846 C681.5023,53.4787 696.3925,53.978 705.5233,69.8143 C716.1436,51.3432 732.2695,50.6754 742.8732,69.8308 C752.8732,53.1309 763.67,51.7849 776.1862,67.2227 C788.6498,50.4452 801.8539,46.6025 815.3772,66.0771 C828.3808,43.8469 841.354,44.9034 855.5714,64.9222 C866.2711,46.8156 876.1875,45.7351 888.6388,63.2985 C903.2741,44.1895 917.3588,50.2014 928.2091,67.4212 C938.0877,51.6673 951.0707,53.5166 961.3505,66.9658 C976.621,44.636 991.7771,51.391 1004.3258,69.8345 C1017.4686,50.7733 1029.7597,54.7505 1041.1679,71.6135 C1053.0672,53.4209 1064.6497,52.9647 1077.3768,70.7812 C1091.1348,55.0274 1106.7861,58.2656 1116.0693,75.9579 C1118.3674,74.0987 1121.0357,75.1425 1121.4302,78.0838 C1139.6856,88.4422 1136.8594,101.2577 1122.9878,113.0474 C1137.8712,124.5389 1138.7253,144.2748 1118.81,152.0377 C1136.1658,159.7819 1137.709,173.3235 1121.9623,184.3019 C1137.6103,197.516 1138.7357,208.7442 1120.4057,220.4971 C1139.4141,230.3363 1141.4004,244.8748 1122.4851,256.8814 C1139.1645,266.3486 1142.5009,282.4061 1123.496,292.8755 C1138.8833,300.0182 1142.06,316.3282 1126.5981,326.3313 C1145.5197,338.1971 1142.854,350.1146 1126.1318,361.508 C1138.501,374.2127 1139.0772,385.0519 1121.4511,393.3468 C1139.3138,406.0248 1140.4621,419.8946 1124.2971,434.903 C1140.862,443.7024 1139.5238,459.2732 1122.7856,466.4783 C1141.805,477.8428 1142.249,493.1315 1122.7407,504.4504 C1140.8822,514.7113 1137.9014,527.6505 1123.4208,538.5618 C1138.1881,558.0851 1128.8735,569.9486 1109.0693,576.3379 C1110.8611,573.8296 1113.566,573.7501 1114.7122,576.9735 C1104.7612,594.9575 1089.7067,595.1254 1078.1937,578.6277 C1067.0036,597.7003 1054.9046,600.6506 1041.0954,581.1465 C1026.3581,599.4022 1012.955,599.6511 1000.0448,579.2083 C991.9504,594.7761 976.4335,598.1339 965.7916,581.9571 C957.3292,601.9882 941.8514,603.9507 929.5175,585.6176 C917.0261,605.0812 901.4908,609.783 887.2772,587.3541 C876.6114,598.9633 861.5199,596.8137 856.5816,580.9538 C845.7059,598.691 826.2262,599.2916 816.3193,579.9031 C807.1143,597.3953 794.0109,602.4796 780.0477,584.8116 C765.3363,600.4325 750.6841,602.1617 740.3028,580.2289 C730.2022,599.9891 714.7986,597.4813 704.3488,580.5714 C684.8918,596.6925 667.9407,592.7073 658.0693,569.3379 C658.6787,569.5142 658.8125,569.8571 658.4777,570.3973 C645.9563,561.9211 645.5285,547.9341 659.1327,540.0212 C638.3519,528.3179 642.453,511.1912 660.4074,500.7451 C641.2017,490.1731 642.2395,476.0946 659.4375,464.5471 C645.8527,453.0024 646.5968,439.5009 661.3309,429.4856 C646.0705,419.8629 649.3061,408.4869 661.9932,399.4812 C642.1098,389.5191 640.3043,371.0244 660.0586,359.1605 C643.5184,349.1064 644.1118,335.9033 660.5431,326.3359 C644.2686,313.9133 643.4744,302.0758 658.6324,288.0831 C641.4947,277.6099 643.5788,267.1648 657.3423,255.4692 C643.8976,246.9062 641.7481,231.835 656.7296,222.7397 C640.0837,210.9717 639.6603,192.413 658.0661,181.789 C645.8488,169.8573 647.2584,154.7942 663.7133,147.5982 C648.8116,142.1747 644.88,127.7384 658.0831,117.1227 C640.7239,99.7889 636.692,79.6577 665.0693,68.9579 C666.9194,65.7219 669.7792,66.254 671.6049,68.9846 " fill="none" style="stroke:#181818;stroke-width:1.0;"/><text fill="#000000" font-family="sans-serif" font-size="14" font-weight="bold" lengthAdjust="spacing" textLength="104" x="835.0693" y="86.953">Fiksna mre&#382;a</text></g><!--cluster _4--><g id="cluster__4"><rect fill="none" height="203.19" rx="2.5" ry="2.5" style="stroke:none;stroke-width:1.0;" width="426" x="674.0693" y="357.1479"/></g><!--cluster sc_2--><g id="cluster_sc_2"><rect fill="#EEEEEE" height="136.19" rx="2.5" ry="2.5" style="stroke:#000000;stroke-width:1.0;" width="156" x="698.0693" y="400.1479"/><text fill="#000000" font-family="sans-serif" font-size="14" font-weight="bold" lengthAdjust="spacing" textLength="130" x="711.0693" y="415.143">Odvojeno jezgro</text></g><!--cluster _5--><g id="cluster__5"><rect fill="none" height="103.59" rx="2.5" ry="2.5" style="stroke:none;stroke-width:1.0;" width="198" x="878.0693" y="416.4479"/></g><!--entity 0--><g id="elem_0"><rect fill="none" height="36.2969" rx="2.5" ry="2.5" style="stroke:none;stroke-width:0.5;" width="29" x="136.5693" y="95.9579"/></g><!--entity 1--><g id="elem_1"><rect fill="#FFFFFF" height="36.2969" rx="2.5" ry="2.5" style="stroke:#000000;stroke-width:0.5;" width="167" x="67.5693" y="192.2579"/><text fill="#000000" font-family="sans-serif" font-size="14" lengthAdjust="spacing" textLength="147" x="77.5693" y="215.253">5G UE (VoNR telefon)</text></g><!--entity 2--><g id="elem_2"><rect fill="#FFFFFF" height="36.2969" rx="2.5" ry="2.5" style="stroke:#000000;stroke-width:0.5;" width="49" x="126.5693" y="296.7079"/><text fill="#000000" font-family="sans-serif" font-size="14" lengthAdjust="spacing" textLength="29" x="136.5693" y="319.703">gNB</text></g><!--entity 3--><g id="elem_3"><rect fill="#FFFFFF" height="52.5938" rx="2.5" ry="2.5" style="stroke:#000000;stroke-width:0.5;" width="119" x="91.5693" y="451.4479"/><text fill="#000000" font-family="sans-serif" font-size="14" lengthAdjust="spacing" textLength="99" x="101.5693" y="474.443">5G core (5GC)</text><text fill="#000000" font-family="sans-serif" font-size="14" lengthAdjust="spacing" textLength="95" x="103.5693" y="490.7399">AMF/SMF/UPF</text></g><!--entity 4_1--><g id="elem_4_1"><rect fill="#FFFFFF" height="85.1875" rx="2.5" ry="2.5" style="stroke:#000000;stroke-width:0.5;" width="124" x="267.0693" y="435.1479"/><text fill="#000000" font-family="sans-serif" font-size="14" lengthAdjust="spacing" textLength="71" x="293.5693" y="458.143">IMS jezgro</text><text fill="#000000" font-family="sans-serif" font-size="14" lengthAdjust="spacing" textLength="104" x="277.0693" y="474.4399">P-CSCF, I-CSCF</text><text fill="#000000" font-family="sans-serif" font-size="14" lengthAdjust="spacing" textLength="77" x="290.5693" y="490.7367">S-CSCF, AS</text><text fill="#000000" font-family="sans-serif" font-size="14" lengthAdjust="spacing" textLength="66" x="296.0693" y="507.0336">HSS/UDM</text></g><!--entity 6--><g id="elem_6"><rect fill="#FFFFFF" height="52.5938" rx="2.5" ry="2.5" style="stroke:#000000;stroke-width:0.5;" width="174" x="890.0693" y="288.5579"/><text fill="#000000" font-family="sans-serif" font-size="14" lengthAdjust="spacing" textLength="154" x="900.0693" y="311.553">Fiksna pristupna ta&#269;ka</text><text fill="#000000" font-family="sans-serif" font-size="14" lengthAdjust="spacing" textLength="85" x="934.5693" y="327.8499">(xDSL/FTTH)</text></g><!--entity 7--><g id="elem_7"><rect fill="#FFFFFF" height="36.2969" rx="2.5" ry="2.5" style="stroke:#000000;stroke-width:0.5;" width="140" x="907.0693" y="192.2579"/><text fill="#000000" font-family="sans-serif" font-size="14" lengthAdjust="spacing" textLength="120" x="917.0693" y="215.253">CPE/Home router</text></g><!--entity 8--><g id="elem_8"><rect fill="#FFFFFF" height="36.2969" rx="2.5" ry="2.5" style="stroke:#000000;stroke-width:0.5;" width="170" x="892.0693" y="95.9579"/><text fill="#000000" font-family="sans-serif" font-size="14" lengthAdjust="spacing" textLength="150" x="902.0693" y="118.953">SIP telefon/Softphone</text></g><!--entity 4_2--><g id="elem_4_2"><rect fill="#FFFFFF" height="85.1875" rx="2.5" ry="2.5" style="stroke:#000000;stroke-width:0.5;" width="124" x="714.0693" y="435.1479"/><text fill="#000000" font-family="sans-serif" font-size="14" lengthAdjust="spacing" textLength="71" x="740.5693" y="458.143">IMS jezgro</text><text fill="#000000" font-family="sans-serif" font-size="14" lengthAdjust="spacing" textLength="104" x="724.0693" y="474.4399">P-CSCF, I-CSCF</text><text fill="#000000" font-family="sans-serif" font-size="14" lengthAdjust="spacing" textLength="77" x="737.5693" y="490.7367">S-CSCF, AS</text><text fill="#000000" font-family="sans-serif" font-size="14" lengthAdjust="spacing" textLength="66" x="743.0693" y="507.0336">HSS/UDM</text></g><!--entity 5--><g id="elem_5"><rect fill="#FFFFFF" height="52.5938" rx="2.5" ry="2.5" style="stroke:#000000;stroke-width:0.5;" width="166" x="894.0693" y="451.4479"/><text fill="#000000" font-family="sans-serif" font-size="14" lengthAdjust="spacing" textLength="64" x="945.0693" y="474.443">AGF/BNG</text><text fill="#000000" font-family="sans-serif" font-size="14" lengthAdjust="spacing" textLength="146" x="904.0693" y="490.7399">fixed access gateway</text></g><!--entity rectangle_empty--><g id="elem_rectangle_empty"><rect fill="none" height="36.2969" rx="2.5" ry="2.5" style="stroke:none;stroke-width:0.5;" width="135" x="498.5693" y="95.9579"/></g><!--link cloud_1 to rectangle_empty--><!--link 0 to 1--><!--link 1 to 2--><g id="link_1_2"><path d="M151.0693,228.5979 C151.0693,247.6579 151.0693,271.4079 151.0693,290.5179 " fill="none" id="1-to-2" style="stroke:#181818;stroke-width:1.0;"/><polygon fill="#181818" points="151.0693,296.5179,155.0693,287.5179,151.0693,291.5179,147.0693,287.5179,151.0693,296.5179" style="stroke:#181818;stroke-width:1.0;"/></g><!--link 2 to 3--><g id="link_2_3"><path d="M151.0693,333.2179 C151.0693,362.0079 151.0693,411.8879 151.0693,445.0979 " fill="none" id="2-to-3" style="stroke:#181818;stroke-width:1.0;"/><polygon fill="#181818" points="151.0693,451.0979,155.0693,442.0979,151.0693,446.0979,147.0693,442.0979,151.0693,451.0979" style="stroke:#181818;stroke-width:1.0;"/></g><!--link 3 to 4_1--><g id="link_3_4_1"><path d="M210.8393,477.3379 C228.8093,477.3379 242.5793,477.3379 260.7193,477.3379 " fill="none" id="3-to-4_1" style="stroke:#181818;stroke-width:1.0;"/><polygon fill="#181818" points="266.7193,477.3379,257.7193,473.3379,261.7193,477.3379,257.7193,481.3379,266.7193,477.3379" style="stroke:#181818;stroke-width:1.0;"/></g><!--link 4_1 to 4_2--><g id="link_4_1_4_2"><path d="M397.2193,477.3379 C482.3793,477.3379 622.4593,477.3379 707.7293,477.3379 " fill="none" id="4_1-4_2" style="stroke:#181818;stroke-width:1.0;"/><polygon fill="#181818" points="391.2193,477.3379,400.2193,481.3379,396.2193,477.3379,400.2193,473.3379,391.2193,477.3379" style="stroke:#181818;stroke-width:1.0;"/><polygon fill="#181818" points="713.7293,477.3379,704.7293,473.3379,708.7293,477.3379,704.7293,481.3379,713.7293,477.3379" style="stroke:#181818;stroke-width:1.0;"/></g><!--reverse link 4_2 to 5--><g id="link_4_2_5"><path d="M844.5693,477.3379 C862.0793,477.3379 875.4093,477.3379 893.9193,477.3379 " fill="none" id="4_2-backto-5" style="stroke:#181818;stroke-width:1.0;"/><polygon fill="#181818" points="838.5693,477.3379,847.5693,481.3379,843.5693,477.3379,847.5693,473.3379,838.5693,477.3379" style="stroke:#181818;stroke-width:1.0;"/></g><!--link 6 to 5--><g id="link_6_5"><path d="M977.0693,341.3879 C977.0693,371.5879 977.0693,414.6479 977.0693,444.9479 " fill="none" id="6-to-5" style="stroke:#181818;stroke-width:1.0;"/><polygon fill="#181818" points="977.0693,450.9479,981.0693,441.9479,977.0693,445.9479,973.0693,441.9479,977.0693,450.9479" style="stroke:#181818;stroke-width:1.0;"/></g><!--link 7 to 6--><g id="link_7_6"><path d="M977.0693,228.5979 C977.0693,245.0779 977.0693,263.5779 977.0693,282.2479 " fill="none" id="7-to-6" style="stroke:#181818;stroke-width:1.0;"/><polygon fill="#181818" points="977.0693,288.2479,981.0693,279.2479,977.0693,283.2479,973.0693,279.2479,977.0693,288.2479" style="stroke:#181818;stroke-width:1.0;"/></g><!--link 8 to 7--><g id="link_8_7"><path d="M977.0693,132.6779 C977.0693,149.7279 977.0693,168.8679 977.0693,185.8979 " fill="none" id="8-to-7" style="stroke:#181818;stroke-width:1.0;"/><polygon fill="#181818" points="977.0693,191.8979,981.0693,182.8979,977.0693,186.8979,973.0693,182.8979,977.0693,191.8979" style="stroke:#181818;stroke-width:1.0;"/></g><!--SRC=[hLJ1Jjj04BtlLupS2qXDJGm13b6a9E04gT2eXbwQAbhiYRF4th7M6o1K-OJ-Ka_jVtMzSO8TQBdKKkpnl9ctCs_6qPI19hWbhIc5I2WCjI39PY92QBVD8qBPwK2kKI7fPOORA2I5TO2rSxrCiCCA4YxZ1E4x0nYI4ayaDK-wYOXbYb93Q6we3DZZuJnMj91Hdn9Iy30J6et_m_faI_0oIYikyumhms9ntz2_XgmAfgBGl_2yExUNZLonjblMp_Ava8Q4fr1lfKSgGhNElKqCMTrNqQjQnwfAc0Y9XLf0Ii-8CIsq8NS-HVTqXvB3nMK0T_WKAmvF75e3430Lyrmk85Nu- -V2OInCQ161Ox2KRaLYaYp47U0vE1QTD1rRy7Fvpe5JcMSTCamtvx3tXQu-WyO4foJtBLcp7XTVzQpRgxlDOPNErqfNOUybl7kydT5UQz3V7ylkfUy6vdSpykrfXpPZjKjRAaPhjSXvNib2XJpSIB2JjjMNndBKw0Tz_prSsETO1kLxDnZBOH2uDsUNjeAZIHEsHHIRiXc1NqpcDVcz5_9FZlufqflTUF-n6mzUbtJIUcDItO7lzgu6OpaLZnW13qFCSuYvnWU-jEIjYawrr5AgJ8bSBp9ZQVxhnvoFvTxZMV3HzQ-lX-kTEwxdzKVdxf1I1FFPchyC6t9I3makHfkrTGEQwcn64ctWQJ6hIkJMd62QwMMzs-rSpRGRNzV0DoNYcMvqO2UJ7Jo7HFGWJKIJcRJIzfYtjG_P8JGsD6QJMB5DxOh7OyL4DXwZOCkyBBA6KUAuj4xOIMcT_W40]--></g></svg>