<?xml version="1.0" encoding="us-ascii" standalone="no"?><svg xmlns="http://www.w3.org/2000/svg" xmlns:xlink="http://www.w3.org/1999/xlink" contentStyleType="text/css" height="1094px" preserveAspectRatio="none" style="width:2263px;height:1094px;background:#FFFFFF;" version="1.1" viewBox="0 0 2263 1094" width="2263px" zoomAndPan="magnify"><defs/><g><text fill="#000000" font-family="sans-serif" font-size="14" font-weight="bold" lengthAdjust="spacing" textLength="264" x="992.5459" y="22.9951">Zajedni&#269;ko IMS jezgro u 5G mre&#382;i</text><!--cluster cloud_1--><g id="cluster_cloud_1"><path d="M61.5775,83.0215 C79.8556,53.1346 107.9494,62.4385 121.4086,88.2024 C137.5628,54.6815 168.0111,63.748 183.2968,89.1152 C201.3019,56.7898 234.5868,50.2698 255.8046,85.676 C276.7904,56.2103 304.7288,58.4359 324.3654,87.2629 C340.7166,51.4601 371.999,54.9477 389.9233,85.7137 C402.7987,50.4118 430.4907,44.1865 454.4506,74.8748 C470.2862,45.0223 498.1617,47.6103 514.6026,74.2301 C537.8406,43.2969 570.5072,45.383 591.5095,76.9799 C615.6472,49.3621 637.0509,47.7765 655.1003,83.1282 C672.6242,51.3243 690.9431,53.3953 712.9676,78.5563 C735.1184,50.1027 763.739,48.5726 779.324,85.2462 C800.4528,46.1858 833.0325,49.1877 853.3451,86.042 C872.9051,48.7693 903.1598,55.0545 923.0649,85.6878 C941.2283,54.8437 967.4977,57.9 984.5718,86.8091 C989.7464,84.0777 993.193,84.3936 994.4059,90.9872 C1029.8573,117.6353 1020.4523,141.3899 988.7317,162.7251 C1021.0639,180.9119 1028.8066,210.9217 992.2567,232.5842 C1022.5419,248.9272 1024.7371,277.287 996.024,297.0764 C1026.123,318.5193 1025.7223,340.991 997.8254,363.9951 C1031.7537,386.8475 1038.2365,407.6919 1001.1807,433.949 C1028.983,450.4329 1027.5183,481.9954 1001.1875,498.4851 C1032.5068,519.3732 1029.0884,545.277 999.6865,564.7905 C1035.1103,586.5793 1038.6633,611.9154 1002.0541,636.0959 C1027.5957,659.9218 1028.4442,690.8021 991.3952,704.9369 C1022.9681,718.9984 1024.4655,743.0319 998.6274,764.1102 C1036.0852,788.7829 1029.0757,816.1464 998.0903,840.3368 C1031.8655,862.3785 1026.5497,890.3161 991.5163,905.406 C1020.0303,921.5668 1030.7976,954.2147 994.746,973.4405 C1019.6944,999.9391 1016.683,1029.5279 977.5718,1039.3291 C980.2652,1036.4058 982.8183,1036.2034 984.606,1040.244 C964.9769,1074.8689 943.2393,1082.9418 913.4136,1051.1784 C889.23,1078.2431 869.7847,1078.7391 851.0076,1045.5764 C831.0242,1072.9677 800.9428,1069.6508 784.5587,1041.2868 C768.6679,1072.9309 745.8927,1080.6876 721.3983,1050.0056 C699.4578,1082.4138 667.6112,1079.8126 647.2017,1048.2305 C625.2876,1073.1238 602.8516,1070.9215 584.6079,1043.8125 C571.4626,1078.6797 540.5764,1086.2596 518.476,1052.4336 C500.8754,1080.1106 472.9702,1083.4111 458.0463,1049.7946 C436.9799,1087.668 399.6566,1081.994 381.9,1046.3657 C364.2902,1071.312 333.4039,1071.2671 320.1691,1041.4353 C299.5154,1071.4634 279.1818,1077.4874 255.049,1045.0629 C233.3479,1074.843 207.2719,1076.5885 186.189,1044.3762 C165.5066,1068.5094 145.2192,1072.132 128.5992,1040.2032 C99.8036,1075.925 65.0865,1075.2284 43.5718,1032.3291 C49.1651,1030.6344 52.146,1033.6341 51.6615,1039.1489 C21.4488,1021.5663 22.4296,989.9771 50.6145,971.4907 C15.7717,958.6173 13.8305,927.9248 44.9197,909.0391 C10.4706,888.9617 19.1312,857.1246 48.6375,840.5172 C17.5537,818.6741 9.5647,796.6574 46.1406,772.3365 C6.846,749.727 6.9513,727.6669 41.9181,700.6813 C18.5362,679.9349 13.6144,652.4143 48.4128,637.6641 C6.7199,620.5873 6,589.8867 40.0956,564.2265 C10.3356,544.6201 16.8197,516.4325 44.6989,501.0243 C11.3997,481.4593 13.3569,447.4616 46.8811,429.9482 C20.3176,407.4284 23.0906,386.5009 51.7254,368.3199 C13.9412,347.2005 7.2512,318.4682 46.0367,291.6662 C16.7342,268.7118 18.7605,249.0603 51.2538,231.4609 C17.0515,211.2443 19.1773,188.0775 46.1274,163.2639 C9.3682,133.5457 11.6857,105.4988 50.5718,79.8091 C55.0969,75.0479 60.4482,76.1487 61.5775,83.0215 " fill="none" style="stroke:#181818;stroke-width:1.0;"/><text fill="#000000" font-family="sans-serif" font-size="14" font-weight="bold" lengthAdjust="spacing" textLength="142" x="443.0718" y="97.8042">5G mobilna mre&#382;a</text></g><!--cluster _1--><g id="cluster__1"><rect fill="none" height="639.34" rx="2.5" ry="2.5" style="stroke:none;stroke-width:1.0;" width="885" x="67.5718" y="375.9891"/></g><!--cluster _1--><g id="cluster__1"><rect fill="none" height="103.59" rx="2.5" ry="2.5" style="stroke:none;stroke-width:1.0;" width="152" x="91.5718" y="512.8491"/></g><!--cluster odvojeno_jezgro--><g id="cluster_odvojeno_jezgro"><rect fill="#EEEEEE" height="572.34" rx="2.5" ry="2.5" style="stroke:#000000;stroke-width:1.0;" width="661" x="267.5718" y="418.9891"/><text fill="#000000" font-family="sans-serif" font-size="14" font-weight="bold" lengthAdjust="spacing" textLength="130" x="533.0718" y="433.9842">Odvojeno jezgro</text></g><!--cluster 4--><g id="cluster_4"><rect fill="#FFFFFF" height="489.34" rx="2.5" ry="2.5" style="stroke:#000000;stroke-width:1.0;" width="597" x="299.5718" y="469.9891"/></g><!--cluster _1--><g id="cluster__1"><rect fill="none" height="87.3" rx="2.5" ry="2.5" style="stroke:none;stroke-width:1.0;" width="415" x="369.5718" y="520.9891"/></g><!--cluster _2--><g id="cluster__2"><rect fill="none" height="87.3" rx="2.5" ry="2.5" style="stroke:none;stroke-width:1.0;" width="425" x="341.5718" y="640.4391"/></g><!--cluster _3--><g id="cluster__3"><rect fill="none" height="103.29" rx="2.5" ry="2.5" style="stroke:none;stroke-width:1.0;" width="509" x="339.5718" y="759.7391"/></g><!--cluster cloud_2--><g id="cluster_cloud_2"><path d="M1252.1565,90.2757 C1273.9278,60.4554 1300.9628,55.3483 1324.5544,88.172 C1345.5743,54.4665 1369.5747,57.0834 1391.4784,87.2458 C1417.2692,57.8328 1445.0023,61.4672 1465.4154,93.696 C1481.871,65.7944 1508.8054,54.3646 1530.4511,88.2314 C1552.0477,53.1867 1579.9554,55.0363 1602.401,87.3242 C1627.2595,61.3817 1651.0117,59.5348 1670.3196,93.606 C1683.4612,64.1999 1714.122,55.6705 1735.1779,84.8434 C1752.5117,51.7828 1786.3886,50.514 1805.0907,83.3927 C1824.8031,56.2981 1846.7946,60.0049 1864.7538,85.386 C1890.6814,61.4692 1913.5972,58.8608 1931.7702,94.1618 C1953.2505,61.765 1976.2302,55.4408 2000.6334,91.209 C2023.6292,50.877 2046.0368,54.8512 2073.6353,86.5439 C2092.6185,54.5777 2123.9176,49.7998 2142.2032,87.2331 C2164.242,57.4438 2193.2965,57.6112 2207.5718,94.8091 C2209.6236,94.0574 2211.3051,95.4187 2211.081,97.565 C2245.4573,119.8273 2254.4186,142.3815 2218.8366,171.9389 C2249.4439,186.6018 2249.1944,212.8388 2221.8615,230.4947 C2249.7363,252.4779 2248.3182,282.1072 2216.4649,299.4134 C2247.8442,324.8273 2246.0488,346.7515 2213.4645,369.4241 C2242.127,387.738 2246.879,406.6098 2220.4133,431.1315 C2250.7307,454.8237 2253.0344,481.374 2218.7806,503.6117 C2256.0917,515.9208 2251.9515,548.5605 2226.947,568.6895 C2254.8505,594.9631 2254.0521,616.7546 2216.7976,632.6963 C2254.6327,652.3049 2248.916,681.4664 2218.485,702.7201 C2245.3589,721.8032 2249.5816,749.2869 2217.8234,767.7738 C2244.5656,787.9269 2247.4772,805.9699 2220.0031,828.0825 C2254.1369,854.4255 2251.8365,877.7619 2217.0331,901.3089 C2251.5117,925.8369 2243.0557,948.7495 2211.5472,967.8361 C2241.0041,993.7249 2238.971,1017.1699 2200.5718,1031.3291 C2204.6999,1033.7323 2204.8743,1036.2858 2201.3305,1039.4094 C2180.2871,1067.8214 2155.0704,1064.5086 2136.6312,1036.427 C2116.361,1068.6289 2091.9736,1073.8644 2066.7652,1041.795 C2047.3266,1074.9661 2018.8905,1071.1655 2001.3413,1039.8773 C1980.7947,1068.9816 1956.247,1069.3326 1937.0613,1038.4197 C1917.2924,1066.9573 1889.2332,1067.9272 1871.0106,1036.7105 C1852.3517,1070.908 1823.5655,1086.3443 1794.4815,1047.6567 C1776.9072,1074.6008 1751.0561,1068.454 1737.1481,1043.5985 C1718.1188,1075.7974 1687.8574,1075.0281 1668.8045,1043.6238 C1648.1949,1072.6217 1622.0899,1074.9 1600.0355,1045.32 C1578.6231,1076.8727 1549.3639,1075.731 1527.0117,1046.4482 C1505.3392,1075.819 1473.829,1071.47 1456.8641,1040.9358 C1439.7268,1073.5193 1414.1461,1073.4427 1394.0295,1043.9515 C1369.5996,1071.7443 1345.1637,1079.6002 1324.1969,1040.3446 C1291.0787,1067.3729 1262.5741,1072.4532 1244.5718,1024.3291 C1247.1671,1022.5189 1248.9484,1024.1398 1249.3297,1026.7255 C1223.0892,1010.3024 1225.9881,981.0887 1252.7396,967.7284 C1220.1894,944.1229 1207.8109,920.9112 1247.0541,891.9212 C1213.7413,875.481 1210.8855,846.6212 1242.357,825.5932 C1213.2308,801.175 1215.4189,780.8351 1245.4843,759.2052 C1216.1744,746.1388 1213.1455,717.9319 1242.6953,701.9962 C1207.0524,685.6942 1211.2438,654.5448 1241.1038,636.6476 C1204.716,614.558 1200.1925,589.6118 1238.742,565.0504 C1208.6742,543.3772 1206.1088,511.6566 1244.5534,495.7268 C1214.5738,477.4619 1211.3544,456.1204 1242.3638,435.6331 C1203.8283,411.4403 1204.6795,388.7498 1240.8066,362.9573 C1215.1557,340.0644 1212.1124,311.5234 1247.3653,294.4623 C1217.7121,278.1312 1218.7605,249.7574 1249.4264,235.5363 C1214.1604,218.2179 1215.1193,193.5322 1244.745,171.4719 C1202.548,143.6619 1210.8119,108.8499 1251.5718,87.8091 C1252.8803,88.2492 1253.0578,89.3117 1252.1565,90.2757 " fill="none" style="stroke:#181818;stroke-width:1.0;"/><text fill="#000000" font-family="sans-serif" font-size="14" font-weight="bold" lengthAdjust="spacing" textLength="104" x="1674.0718" y="105.8042">Fiksna mre&#382;a</text></g><!--cluster _1--><g id="cluster__1"><rect fill="none" height="639.34" rx="2.5" ry="2.5" style="stroke:none;stroke-width:1.0;" width="931" x="1260.5718" y="375.9891"/></g><!--cluster odvojeno_jezgro--><g id="cluster_odvojeno_jezgro"><rect fill="#EEEEEE" height="572.34" rx="2.5" ry="2.5" style="stroke:#000000;stroke-width:1.0;" width="661" x="1284.5718" y="418.9891"/><text fill="#000000" font-family="sans-serif" font-size="14" font-weight="bold" lengthAdjust="spacing" textLength="130" x="1550.0718" y="433.9842">Odvojeno jezgro</text></g><!--cluster 4--><g id="cluster_4"><rect fill="#FFFFFF" height="489.34" rx="2.5" ry="2.5" style="stroke:#000000;stroke-width:1.0;" width="597" x="1316.5718" y="469.9891"/></g><!--cluster _1--><g id="cluster__1"><rect fill="none" height="87.3" rx="2.5" ry="2.5" style="stroke:none;stroke-width:1.0;" width="415" x="1408.5718" y="520.9891"/></g><!--cluster _2--><g id="cluster__2"><rect fill="none" height="87.3" rx="2.5" ry="2.5" style="stroke:none;stroke-width:1.0;" width="425" x="1375.5718" y="640.4391"/></g><!--cluster _3--><g id="cluster__3"><rect fill="none" height="103.29" rx="2.5" ry="2.5" style="stroke:none;stroke-width:1.0;" width="509" x="1364.5718" y="759.7391"/></g><!--cluster _1--><g id="cluster__1"><rect fill="none" height="103.59" rx="2.5" ry="2.5" style="stroke:none;stroke-width:1.0;" width="198" x="1969.5718" y="512.8491"/></g><!--entity 0--><g id="elem_0"><rect fill="none" height="36.2969" rx="2.5" ry="2.5" style="stroke:none;stroke-width:0.5;" width="29" x="153.0718" y="114.8091"/></g><!--entity 1--><g id="elem_1"><rect fill="#FFFFFF" height="36.2969" rx="2.5" ry="2.5" style="stroke:#000000;stroke-width:0.5;" width="167" x="84.0718" y="211.0991"/><text fill="#000000" font-family="sans-serif" font-size="14" lengthAdjust="spacing" textLength="147" x="94.0718" y="234.0942">5G UE (VoNR telefon)</text></g><!--entity 2--><g id="elem_2"><rect fill="#FFFFFF" height="36.2969" rx="2.5" ry="2.5" style="stroke:#000000;stroke-width:0.5;" width="49" x="143.0718" y="315.5491"/><text fill="#000000" font-family="sans-serif" font-size="14" lengthAdjust="spacing" textLength="29" x="153.0718" y="338.5442">gNB</text></g><!--entity 3--><g id="elem_3"><rect fill="#FFFFFF" height="52.5938" rx="2.5" ry="2.5" style="stroke:#000000;stroke-width:0.5;" width="119" x="108.0718" y="547.8491"/><text fill="#000000" font-family="sans-serif" font-size="14" lengthAdjust="spacing" textLength="99" x="118.0718" y="570.8442">5G core (5GC)</text><text fill="#000000" font-family="sans-serif" font-size="14" lengthAdjust="spacing" textLength="95" x="120.0718" y="587.1411">AMF/SMF/UPF</text></g><!--entity _1--><g id="elem__1"><rect fill="none" height="36.2969" rx="2.5" ry="2.5" style="stroke:none;stroke-width:0.5;" width="36" x="385.5718" y="555.9891"/></g><!--entity _2--><g id="elem__2"><rect fill="#000080" height="36.2969" rx="2.5" ry="2.5" style="stroke:#000000;stroke-width:0.5;" width="71" x="521.0718" y="555.9891"/><text fill="#FFFFFF" font-family="sans-serif" font-size="14" font-weight="bold" lengthAdjust="spacing" textLength="51" x="531.0718" y="578.9842">I-CSCF</text></g><!--entity _3--><g id="elem__3"><rect fill="#000080" height="36.2969" rx="2.5" ry="2.5" style="stroke:#000000;stroke-width:0.5;" width="77" x="692.0718" y="555.9891"/><text fill="#FFFFFF" font-family="sans-serif" font-size="14" font-weight="bold" lengthAdjust="spacing" textLength="57" x="702.0718" y="578.9842">AS/TAS</text></g><!--entity _1--><g id="elem__1"><rect fill="#000080" height="36.2969" rx="2.5" ry="2.5" style="stroke:#000000;stroke-width:0.5;" width="65" x="358.0718" y="675.4391"/><text fill="#FFFFFF" font-family="sans-serif" font-size="14" font-weight="bold" lengthAdjust="spacing" textLength="45" x="368.0718" y="698.4342">MGCF</text></g><!--entity _2--><g id="elem__2"><rect fill="#000080" height="36.2969" rx="2.5" ry="2.5" style="stroke:#000000;stroke-width:0.5;" width="77" x="523.0718" y="675.4391"/><text fill="#FFFFFF" font-family="sans-serif" font-size="14" font-weight="bold" lengthAdjust="spacing" textLength="57" x="533.0718" y="698.4342">S-CSCF</text></g><!--entity _3--><g id="elem__3"><rect fill="#000080" height="36.2969" rx="2.5" ry="2.5" style="stroke:#000000;stroke-width:0.5;" width="51" x="700.0718" y="675.4391"/><text fill="#FFFFFF" font-family="sans-serif" font-size="14" font-weight="bold" lengthAdjust="spacing" textLength="31" x="710.0718" y="698.4342">HSS</text></g><!--entity _1--><g id="elem__1"><rect fill="#000080" height="36.2969" rx="2.5" ry="2.5" style="stroke:#000000;stroke-width:0.5;" width="60" x="363.5718" y="802.7391"/><text fill="#FFFFFF" font-family="sans-serif" font-size="14" font-weight="bold" lengthAdjust="spacing" textLength="40" x="373.5718" y="825.7342">PCRF</text></g><!--entity _2--><g id="elem__2"><rect fill="#000080" height="36.2969" rx="2.5" ry="2.5" style="stroke:#000000;stroke-width:0.5;" width="77" x="523.0718" y="802.7391"/><text fill="#FFFFFF" font-family="sans-serif" font-size="14" font-weight="bold" lengthAdjust="spacing" textLength="57" x="533.0718" y="825.7342">P-CSCF</text></g><!--entity _3--><g id="elem__3"><rect fill="#000080" height="36.2969" rx="2.5" ry="2.5" style="stroke:#000000;stroke-width:0.5;" width="40" x="700.5718" y="802.7391"/><text fill="#FFFFFF" font-family="sans-serif" font-size="14" font-weight="bold" lengthAdjust="spacing" textLength="20" x="710.5718" y="825.7342">UE</text></g><!--entity _4--><g id="elem__4"><rect fill="none" height="36.2969" rx="2.5" ry="2.5" style="stroke:none;stroke-width:0.5;" width="36" x="822.5718" y="899.0291"/></g><!--entity 6--><g id="elem_6"><rect fill="#FFFFFF" height="52.5938" rx="2.5" ry="2.5" style="stroke:#000000;stroke-width:0.5;" width="174" x="1981.5718" y="307.3991"/><text fill="#000000" font-family="sans-serif" font-size="14" lengthAdjust="spacing" textLength="154" x="1991.5718" y="330.3942">Fiksna pristupna ta&#269;ka</text><text fill="#000000" font-family="sans-serif" font-size="14" lengthAdjust="spacing" textLength="85" x="2026.0718" y="346.6911">(xDSL/FTTH)</text></g><!--entity 7--><g id="elem_7"><rect fill="#FFFFFF" height="36.2969" rx="2.5" ry="2.5" style="stroke:#000000;stroke-width:0.5;" width="140" x="1998.5718" y="211.0991"/><text fill="#000000" font-family="sans-serif" font-size="14" lengthAdjust="spacing" textLength="120" x="2008.5718" y="234.0942">CPE/Home router</text></g><!--entity 8--><g id="elem_8"><rect fill="#FFFFFF" height="36.2969" rx="2.5" ry="2.5" style="stroke:#000000;stroke-width:0.5;" width="170" x="1983.5718" y="114.8091"/><text fill="#000000" font-family="sans-serif" font-size="14" lengthAdjust="spacing" textLength="150" x="1993.5718" y="137.8042">SIP telefon/Softphone</text></g><!--entity _1--><g id="elem__1"><rect fill="none" height="36.2969" rx="2.5" ry="2.5" style="stroke:none;stroke-width:0.5;" width="36" x="1424.5718" y="555.9891"/></g><!--entity _2--><g id="elem__2"><rect fill="#000080" height="36.2969" rx="2.5" ry="2.5" style="stroke:#000000;stroke-width:0.5;" width="71" x="1560.0718" y="555.9891"/><text fill="#FFFFFF" font-family="sans-serif" font-size="14" font-weight="bold" lengthAdjust="spacing" textLength="51" x="1570.0718" y="578.9842">I-CSCF</text></g><!--entity _3--><g id="elem__3"><rect fill="#000080" height="36.2969" rx="2.5" ry="2.5" style="stroke:#000000;stroke-width:0.5;" width="77" x="1731.0718" y="555.9891"/><text fill="#FFFFFF" font-family="sans-serif" font-size="14" font-weight="bold" lengthAdjust="spacing" textLength="57" x="1741.0718" y="578.9842">AS/TAS</text></g><!--entity _1--><g id="elem__1"><rect fill="#000080" height="36.2969" rx="2.5" ry="2.5" style="stroke:#000000;stroke-width:0.5;" width="65" x="1392.0718" y="675.4391"/><text fill="#FFFFFF" font-family="sans-serif" font-size="14" font-weight="bold" lengthAdjust="spacing" textLength="45" x="1402.0718" y="698.4342">MGCF</text></g><!--entity _2--><g id="elem__2"><rect fill="#000080" height="36.2969" rx="2.5" ry="2.5" style="stroke:#000000;stroke-width:0.5;" width="77" x="1557.0718" y="675.4391"/><text fill="#FFFFFF" font-family="sans-serif" font-size="14" font-weight="bold" lengthAdjust="spacing" textLength="57" x="1567.0718" y="698.4342">S-CSCF</text></g><!--entity _3--><g id="elem__3"><rect fill="#000080" height="36.2969" rx="2.5" ry="2.5" style="stroke:#000000;stroke-width:0.5;" width="51" x="1734.0718" y="675.4391"/><text fill="#FFFFFF" font-family="sans-serif" font-size="14" font-weight="bold" lengthAdjust="spacing" textLength="31" x="1744.0718" y="698.4342">HSS</text></g><!--entity _1--><g id="elem__1"><rect fill="#000080" height="36.2969" rx="2.5" ry="2.5" style="stroke:#000000;stroke-width:0.5;" width="60" x="1388.5718" y="802.7391"/><text fill="#FFFFFF" font-family="sans-serif" font-size="14" font-weight="bold" lengthAdjust="spacing" textLength="40" x="1398.5718" y="825.7342">PCRF</text></g><!--entity _2--><g id="elem__2"><rect fill="#000080" height="36.2969" rx="2.5" ry="2.5" style="stroke:#000000;stroke-width:0.5;" width="77" x="1548.0718" y="802.7391"/><text fill="#FFFFFF" font-family="sans-serif" font-size="14" font-weight="bold" lengthAdjust="spacing" textLength="57" x="1558.0718" y="825.7342">P-CSCF</text></g><!--entity _3--><g id="elem__3"><rect fill="#000080" height="36.2969" rx="2.5" ry="2.5" style="stroke:#000000;stroke-width:0.5;" width="40" x="1725.5718" y="802.7391"/><text fill="#FFFFFF" font-family="sans-serif" font-size="14" font-weight="bold" lengthAdjust="spacing" textLength="20" x="1735.5718" y="825.7342">UE</text></g><!--entity _4--><g id="elem__4"><rect fill="none" height="36.2969" rx="2.5" ry="2.5" style="stroke:none;stroke-width:0.5;" width="36" x="1847.5718" y="899.0291"/></g><!--entity 5--><g id="elem_5"><rect fill="#FFFFFF" height="52.5938" rx="2.5" ry="2.5" style="stroke:#000000;stroke-width:0.5;" width="166" x="1985.5718" y="547.8491"/><text fill="#000000" font-family="sans-serif" font-size="14" lengthAdjust="spacing" textLength="64" x="2036.5718" y="570.8442">AGF/BNG</text><text fill="#000000" font-family="sans-serif" font-size="14" lengthAdjust="spacing" textLength="146" x="1995.5718" y="587.1411">fixed access gateway</text></g><!--entity rectangle_empty--><g id="elem_rectangle_empty"><rect fill="none" height="36.2969" rx="2.5" ry="2.5" style="stroke:none;stroke-width:0.5;" width="135" x="1085.0718" y="114.8091"/></g><!--link cloud_1 to rectangle_empty--><!--link 0 to 1--><!--link 1 to 2--><g id="link_1_2"><path d="M167.5718,247.4391 C167.5718,266.4991 167.5718,290.2591 167.5718,309.3591 " fill="none" id="1-to-2" style="stroke:#181818;stroke-width:1.0;"/><polygon fill="#181818" points="167.5718,315.3591,171.5718,306.3591,167.5718,310.3591,163.5718,306.3591,167.5718,315.3591" style="stroke:#181818;stroke-width:1.0;"/></g><!--link 2 to 3--><g id="link_2_3"><path d="M167.5718,352.1691 C167.5718,394.3891 167.5718,492.1391 167.5718,541.3791 " fill="none" id="2-to-3" style="stroke:#181818;stroke-width:1.0;"/><polygon fill="#181818" points="167.5718,547.3791,171.5718,538.3791,167.5718,542.3791,163.5718,538.3791,167.5718,547.3791" style="stroke:#181818;stroke-width:1.0;"/></g><!--link 3 to 4--><g id="link_3_4"><path d="M227.4918,597.3291 C238.3055,597.3291 250.3499,597.3291 263.4288,597.3291 C269.9683,597.3291 276.7664,597.3291 283.7986,597.3291 C287.3147,597.3291 290.8894,597.3291 294.5195,597.3291 C295.427,597.3291 290.338,597.3291 291.2524,597.3291 " fill="none" id="3-to-4" style="stroke:#181818;stroke-width:1.0;"/><polygon fill="#181818" points="297.2524,597.3291,288.2524,593.3291,292.2524,597.3291,288.2524,601.3291,297.2524,597.3291" style="stroke:#181818;stroke-width:1.0;"/></g><!--link 4 to 4--><g id="link_4_4"><path d="M903.0945,574.3291 C907.052,574.3291 906.3013,574.3291 912.6576,574.3291 C925.3704,574.3291 942.5115,574.3291 962.6038,574.3291 C1002.7883,574.3291 1054.7774,574.3291 1106.753,574.3291 C1158.7286,574.3291 1210.6908,574.3291 1250.8216,574.3291 C1270.887,574.3291 1287.9945,574.3291 1300.667,574.3291 C1307.0032,574.3291 1312.2306,574.3291 1316.1647,574.3291 C1316.2876,574.3291 1310.4093,574.3291 1310.5297,574.3291 " fill="none" id="4-4" style="stroke:#181818;stroke-width:1.0;"/><polygon fill="#181818" points="897.0945,574.3291,906.0945,578.3291,902.0945,574.3291,906.0945,570.3291,897.0945,574.3291" style="stroke:#181818;stroke-width:1.0;"/><polygon fill="#181818" points="1316.5297,574.3291,1307.5297,570.3291,1311.5297,574.3291,1307.5297,578.3291,1316.5297,574.3291" style="stroke:#181818;stroke-width:1.0;"/></g><!--reverse link 4 to 5--><g id="link_4_5"><path d="M1921.737,595.3291 C1923.6266,595.3291 1922.3477,595.3291 1924.2129,595.3291 C1931.6736,595.3291 1938.9359,595.3291 1945.9772,595.3291 C1960.0597,595.3291 1973.258,595.3291 1985.3918,595.3291 " fill="none" id="4-backto-5" style="stroke:#181818;stroke-width:1.0;"/><polygon fill="#181818" points="1915.737,595.3291,1924.737,599.3291,1920.737,595.3291,1924.737,591.3291,1915.737,595.3291" style="stroke:#181818;stroke-width:1.0;"/></g><!--link 6 to 5--><g id="link_6_5"><path d="M2068.5718,360.3491 C2068.5718,406.5691 2068.5718,495.0691 2068.5718,541.3691 " fill="none" id="6-to-5" style="stroke:#181818;stroke-width:1.0;"/><polygon fill="#181818" points="2068.5718,547.3691,2072.5718,538.3691,2068.5718,542.3691,2064.5718,538.3691,2068.5718,547.3691" style="stroke:#181818;stroke-width:1.0;"/></g><!--link 7 to 6--><g id="link_7_6"><path d="M2068.5718,247.4391 C2068.5718,263.9291 2068.5718,282.4191 2068.5718,301.0991 " fill="none" id="7-to-6" style="stroke:#181818;stroke-width:1.0;"/><polygon fill="#181818" points="2068.5718,307.0991,2072.5718,298.0991,2068.5718,302.0991,2064.5718,298.0991,2068.5718,307.0991" style="stroke:#181818;stroke-width:1.0;"/></g><!--link 8 to 7--><g id="link_8_7"><path d="M2068.5718,151.5191 C2068.5718,168.5691 2068.5718,187.7091 2068.5718,204.7391 " fill="none" id="8-to-7" style="stroke:#181818;stroke-width:1.0;"/><polygon fill="#181818" points="2068.5718,210.7391,2072.5718,201.7391,2068.5718,205.7391,2064.5718,201.7391,2068.5718,210.7391" style="stroke:#181818;stroke-width:1.0;"/></g><!--link _2 to _2--><!--link _2 to _2--><g id="link__2__2"><path d="M569.0718,592.5391 C569.0718,614.9191 569.0718,652.4891 569.0718,674.9691 " fill="none" id="_2-_2" style="stroke:#000000;stroke-width:1.0;"/><text fill="#000000" font-family="sans-serif" font-size="14" font-weight="bold" lengthAdjust="spacing" textLength="27" x="536.0718" y="629.7542">Mw</text></g><!--link _2 to _2--><!--link _2 to _2--><g id="link__2__2"><path d="M574.4018,712.0991 C574.4018,736.2291 574.4018,778.2091 574.4018,802.3491 " fill="none" id="_2-_2-1" style="stroke:#000000;stroke-width:1.0;"/><text fill="#000000" font-family="sans-serif" font-size="14" font-weight="bold" lengthAdjust="spacing" textLength="27" x="541.4018" y="753.2242">Mw</text></g><!--link _3 to _4--><!--link _1 to _2--><!--link _2 to _3--><g id="link__2__3"><path d="M592.2018,565.3291 C621.1318,565.3291 661.8818,565.3291 691.6618,565.3291 " fill="none" id="_2-_3" style="stroke:#000000;stroke-width:1.0;"/><text fill="#000000" font-family="sans-serif" font-size="14" font-weight="bold" lengthAdjust="spacing" textLength="22" x="618.9318" y="561.3242">Ma</text></g><!--link _1 to _2--><g id="link__1__2"><path d="M423.3518,687.3291 C446.0918,687.3291 472.3218,687.3291 472.3218,687.3291 C472.3218,687.3291 472.3218,568.3291 472.3218,568.3291 C472.3218,568.3291 497.8818,568.3291 520.8418,568.3291 " fill="none" id="_1-_2" style="stroke:#000000;stroke-width:1.0;"/><text fill="#000000" font-family="sans-serif" font-size="14" font-weight="bold" lengthAdjust="spacing" textLength="23" x="443.3218" y="624.0442">Mg</text></g><!--link _2 to _3--><g id="link__2__3"><path d="M592.4618,583.3291 C617.3618,583.3291 646.0718,583.3291 646.0718,583.3291 C646.0718,583.3291 646.0718,687.3291 646.0718,687.3291 C646.0718,687.3291 676.7418,687.3291 699.9818,687.3291 " fill="none" id="_2-_3-1" style="stroke:#000000;stroke-width:1.0;"/><text fill="#000000" font-family="sans-serif" font-size="14" font-weight="bold" lengthAdjust="spacing" textLength="20" x="620.0718" y="631.4742">Cx</text></g><!--link _3 to _2--><g id="link__3__2"><path d="M691.6718,574.3291 C651.9418,574.3291 596.0718,574.3291 596.0718,574.3291 C596.0718,574.3291 596.0718,641.4091 596.0718,674.9491 " fill="none" id="_3-_2" style="stroke:#000000;stroke-width:1.0;"/><text fill="#000000" font-family="sans-serif" font-size="14" font-weight="bold" lengthAdjust="spacing" textLength="25" x="570.0718" y="572.8342">ISC</text></g><!--link _3 to _3--><g id="link__3__3"><path d="M725.5718,592.5391 C725.5718,614.9191 725.5718,652.4891 725.5718,674.9691 " fill="none" id="_3-_3" style="stroke:#000000;stroke-width:1.0;"/><text fill="#000000" font-family="sans-serif" font-size="14" font-weight="bold" lengthAdjust="spacing" textLength="20" x="704.5718" y="629.7542">Sh</text></g><!--link _1 to _2--><g id="link__1__2"><path d="M423.5418,699.3291 C451.8818,699.3291 492.7918,699.3291 522.7118,699.3291 " fill="none" id="_1-_2-1" style="stroke:#000000;stroke-width:1.0;"/><text fill="#000000" font-family="sans-serif" font-size="14" font-weight="bold" lengthAdjust="spacing" textLength="23" x="444.1318" y="695.3242">Mg</text></g><!--link _2 to _3--><g id="link__2__3"><path d="M600.4418,699.3291 C631.1318,699.3291 673.0818,699.3291 699.7618,699.3291 " fill="none" id="_2-_3-2" style="stroke:#000000;stroke-width:1.0;"/><text fill="#000000" font-family="sans-serif" font-size="14" font-weight="bold" lengthAdjust="spacing" textLength="20" x="619.1018" y="695.3242">Cx</text></g><!--link _1 to _2--><g id="link__1__2"><path d="M423.9918,821.3291 C451.7018,821.3291 492.7518,821.3291 522.8018,821.3291 " fill="none" id="_1-_2-2" style="stroke:#000000;stroke-width:1.0;"/><text fill="#000000" font-family="sans-serif" font-size="14" font-weight="bold" lengthAdjust="spacing" textLength="19" x="438.4018" y="817.3242">Rx</text></g><!--link _2 to _3--><g id="link__2__3"><path d="M600.4718,821.3291 C632.0918,821.3291 675.4418,821.3291 700.4818,821.3291 " fill="none" id="_2-_3-3" style="stroke:#000000;stroke-width:1.0;"/><text fill="#000000" font-family="sans-serif" font-size="14" font-weight="bold" lengthAdjust="spacing" textLength="26" x="618.4718" y="817.3242">Gm</text></g><!--link _2 to _2--><!--link _2 to _2--><g id="link__2__2"><path d="M1607.4018,592.5391 C1607.4018,614.9191 1607.4018,652.4891 1607.4018,674.9691 " fill="none" id="_2-_2-2" style="stroke:#000000;stroke-width:1.0;"/><text fill="#000000" font-family="sans-serif" font-size="14" font-weight="bold" lengthAdjust="spacing" textLength="27" x="1574.4018" y="629.7542">Mw</text></g><!--link _2 to _2--><!--link _2 to _2--><g id="link__2__2"><path d="M1602.4018,712.0991 C1602.4018,736.2291 1602.4018,778.2091 1602.4018,802.3491 " fill="none" id="_2-_2-3" style="stroke:#000000;stroke-width:1.0;"/><text fill="#000000" font-family="sans-serif" font-size="14" font-weight="bold" lengthAdjust="spacing" textLength="27" x="1569.4018" y="753.2242">Mw</text></g><!--link _3 to _4--><!--link _1 to _2--><!--link _2 to _3--><g id="link__2__3"><path d="M1631.2018,565.3291 C1660.1318,565.3291 1700.8818,565.3291 1730.6618,565.3291 " fill="none" id="_2-_3-4" style="stroke:#000000;stroke-width:1.0;"/><text fill="#000000" font-family="sans-serif" font-size="14" font-weight="bold" lengthAdjust="spacing" textLength="22" x="1657.9318" y="561.3242">Ma</text></g><!--link _1 to _2--><g id="link__1__2"><path d="M1457.4718,687.3291 C1479.4418,687.3291 1504.3218,687.3291 1504.3218,687.3291 C1504.3218,687.3291 1504.3218,580.3291 1504.3218,580.3291 C1504.3218,580.3291 1534.2018,580.3291 1559.7718,580.3291 " fill="none" id="_1-_2-3" style="stroke:#000000;stroke-width:1.0;"/><text fill="#000000" font-family="sans-serif" font-size="14" font-weight="bold" lengthAdjust="spacing" textLength="23" x="1475.3218" y="625.5242">Mg</text></g><!--link _2 to _3--><g id="link__2__3"><path d="M1631.4918,583.3291 C1659.9918,583.3291 1695.0718,583.3291 1695.0718,583.3291 C1695.0718,583.3291 1695.0718,693.3291 1695.0718,693.3291 C1695.0718,693.3291 1715.7618,693.3291 1733.7118,693.3291 " fill="none" id="_2-_3-5" style="stroke:#000000;stroke-width:1.0;"/><text fill="#000000" font-family="sans-serif" font-size="14" font-weight="bold" lengthAdjust="spacing" textLength="20" x="1669.0718" y="621.8542">Cx</text></g><!--link _3 to _2--><g id="link__3__2"><path d="M1730.7718,574.3291 C1700.8618,574.3291 1664.5718,574.3291 1664.5718,574.3291 C1664.5718,574.3291 1664.5718,684.3291 1664.5718,684.3291 C1664.5718,684.3291 1650.1618,684.3291 1634.5118,684.3291 " fill="none" id="_3-_2-1" style="stroke:#000000;stroke-width:1.0;"/><text fill="#000000" font-family="sans-serif" font-size="14" font-weight="bold" lengthAdjust="spacing" textLength="25" x="1638.5718" y="607.2542">ISC</text></g><!--link _3 to _3--><g id="link__3__3"><path d="M1759.5718,592.5391 C1759.5718,614.9191 1759.5718,652.4891 1759.5718,674.9691 " fill="none" id="_3-_3-1" style="stroke:#000000;stroke-width:1.0;"/><text fill="#000000" font-family="sans-serif" font-size="14" font-weight="bold" lengthAdjust="spacing" textLength="20" x="1738.5718" y="629.7542">Sh</text></g><!--link _1 to _2--><g id="link__1__2"><path d="M1457.5418,699.3291 C1485.8818,699.3291 1526.7918,699.3291 1556.7118,699.3291 " fill="none" id="_1-_2-4" style="stroke:#000000;stroke-width:1.0;"/><text fill="#000000" font-family="sans-serif" font-size="14" font-weight="bold" lengthAdjust="spacing" textLength="23" x="1478.1318" y="695.3242">Mg</text></g><!--link _2 to _3--><g id="link__2__3"><path d="M1634.4418,702.3291 C1665.1318,702.3291 1707.0818,702.3291 1733.7618,702.3291 " fill="none" id="_2-_3-6" style="stroke:#000000;stroke-width:1.0;"/><text fill="#000000" font-family="sans-serif" font-size="14" font-weight="bold" lengthAdjust="spacing" textLength="20" x="1653.1018" y="698.3242">Cx</text></g><!--link _1 to _2--><g id="link__1__2"><path d="M1448.9918,821.3291 C1476.7018,821.3291 1517.7518,821.3291 1547.8018,821.3291 " fill="none" id="_1-_2-5" style="stroke:#000000;stroke-width:1.0;"/><text fill="#000000" font-family="sans-serif" font-size="14" font-weight="bold" lengthAdjust="spacing" textLength="19" x="1463.4018" y="817.3242">Rx</text></g><!--link _2 to _3--><g id="link__2__3"><path d="M1625.4718,821.3291 C1657.0918,821.3291 1700.4418,821.3291 1725.4818,821.3291 " fill="none" id="_2-_3-7" style="stroke:#000000;stroke-width:1.0;"/><text fill="#000000" font-family="sans-serif" font-size="14" font-weight="bold" lengthAdjust="spacing" textLength="26" x="1643.4718" y="817.3242">Gm</text></g><!--SRC=[xLRTRjf85BwVfnXvBvfU4C8nQQeLYaGea4XDWZ3PYsqgvE09J30po1vAICKZz9NsQlUzzdXi0mOt7Y8k4oLeSdw-ypiV4p95GpPr0rV9W1uJ9QTKIVeWbP8Jwl603HINWeounsYeMC2aMamP2STSH5uJwdF18X6LWHf9GXHNFgFMt-uJymJ_zzTOqgjhXpwnbs4WwOoUjkaaOF_zmor2Qg5Q-EoSH55SCKI_duJIIndm5ocKwzTzFXGJ9XGTu0SBK7dX3iO8D1DUG_gOydp45KFvCMReCQ41TgrKu8eGyqKKhMyXV9vckKRgFw9D0fThZlBKOo03zfl8VpJrJsh99-5l38NxOx4LBAqjbZbHht0olgV1bgHMJjgtCOri9ozauB4W1dlmCM1MLgl5fPwVPzgm96JWovb7hMXMye7xmerdvbhK3QcbjVsAfMEi8redrXengq6WkoOz-alUTAbYFiFUVjHObQpTyEP2Yo4hnbWRkSRzAr1lXzSZEZfjDpxUY_frg-pWtrsdfQFPscEv3Nlh_P1FJCXaTorQgqKe609zPABi9uiTHrqFuaPwp65JMZavsSqdwbsQiTwp6BEwojsWl5SWjTM6sJBVvQhKS1gjo0stCix0weELYQ1tl02dxfHxTMSBnpR2MURM2mRrNhTtKjSBMPokSw2oBvr3rcmRrDnfTDzOS-T0DTyr3rXoDR_ar7X9askPq5rAIYq-3dC92NO8gP0Otd35to_v-oL_l-G7l-JxVgNNswtonKtxNZpoP-PHTp1WOKY7hc9pTw5PuNI5lCooGa8Wqu27QZR5atBncUhUYwFdByxNSglNkumV9v-oVerEitmf9upYgmqVezhaB6lYN7NIzqtPaOzgEfA2QSFF4ODjMAwEVJQPgaMssXNRzIkqz2rMV0_uSAHAvtJBavoiJJmv5sXH8UYMd870wcmJcvPIc0J_67-tYEwuIbvJqjeM1kIRuPgygazXS52d-CziMiA6VqfEP-GiENqc7qgbqeUDDswq3VKWaFFUY0_68ffx9HLbtxfQj7vFxuWT_i9efPeHhL_Pwo7a5X09-x3J_DTTi1T0YatsHBMBKUqz8Qj9smixaBEXnLqpQcoo7eMczf_uJU5QHfXuDGiXetsD88VK35Ftqs3k4URS4DEeTeXhRpoRWDfx9NhbD0wA6UNfZ2nIlFiLy-B1R4hmbeuQefgKRs_CdXIQcjQVeD8kvbgOh6tU0ZjkGNk2e145DBxUtdsXJhDJxzPxjzqDKe3zQH6AQH7sfqKefaNOanR1Y1RX3RG8nRG8vjG0fhG8nhG8nhG8nhG8nhHuWDftQH6CAGoCQV4Wc5kq2EQq2CQq2EQq2EQq2CQq2EQq2EQq2FlG8fZJ8XJJuly0]--></g></svg>